<svg width="22" height="20" viewBox="0 0 22 20" fill="none" xmlns="http://www.w3.org/2000/svg">
<path d="M11.29 3.20994L12.79 4.70994C12.883 4.80367 12.9936 4.87806 13.1154 4.92883C13.2373 4.9796 13.368 5.00574 13.5 5.00574C13.632 5.00574 13.7627 4.9796 13.8846 4.92883C14.0064 4.87806 14.117 4.80367 14.21 4.70994C14.3618 4.55064 14.4567 4.34575 14.4803 4.12699C14.5038 3.90824 14.4545 3.68784 14.34 3.49994H18C18.2652 3.49994 18.5196 3.39458 18.7071 3.20705C18.8946 3.01951 19 2.76516 19 2.49994C19 2.23472 18.8946 1.98037 18.7071 1.79283C18.5196 1.6053 18.2652 1.49994 18 1.49994H14.34C14.4545 1.31204 14.5038 1.09164 14.4803 0.872887C14.4567 0.654133 14.3618 0.449235 14.21 0.289939C14.117 0.196211 14.0064 0.121816 13.8846 0.0710475C13.7627 0.0202789 13.632 -0.00585938 13.5 -0.00585938C13.368 -0.00585937 13.2373 0.0202789 13.1154 0.0710475C12.9936 0.121816 12.883 0.196211 12.79 0.289939L11.29 1.78994C11.199 1.88504 11.1276 1.99719 11.08 2.11994C10.98 2.3634 10.98 2.63648 11.08 2.87994C11.1276 3.00269 11.199 3.11484 11.29 3.20994ZM21.92 7.11994C21.8724 6.99719 21.801 6.88504 21.71 6.78994L20.21 5.28994C20.117 5.19621 20.0064 5.12182 19.8846 5.07105C19.7627 5.02028 19.632 4.99414 19.5 4.99414C19.368 4.99414 19.2373 5.02028 19.1154 5.07105C18.9936 5.12182 18.883 5.19621 18.79 5.28994C18.6382 5.44923 18.5433 5.65413 18.5197 5.87289C18.4962 6.09164 18.5455 6.31204 18.66 6.49994H15C14.7348 6.49994 14.4804 6.6053 14.2929 6.79283C14.1054 6.98037 14 7.23472 14 7.49994C14 7.76516 14.1054 8.01951 14.2929 8.20705C14.4804 8.39458 14.7348 8.49994 15 8.49994H18.66C18.5455 8.68784 18.4962 8.90824 18.5197 9.12699C18.5433 9.34575 18.6382 9.55064 18.79 9.70994C18.883 9.80367 18.9936 9.87806 19.1154 9.92883C19.2373 9.9796 19.368 10.0057 19.5 10.0057C19.632 10.0057 19.7627 9.9796 19.8846 9.92883C20.0064 9.87806 20.117 9.80367 20.21 9.70994L21.71 8.20994C21.801 8.11484 21.8724 8.00269 21.92 7.87994C22.02 7.63648 22.02 7.3634 21.92 7.11994ZM10 7.99994C9.20887 7.99994 8.43552 8.23454 7.77772 8.67406C7.11992 9.11359 6.60723 9.7383 6.30448 10.4692C6.00173 11.2001 5.92252 12.0044 6.07686 12.7803C6.2312 13.5562 6.61216 14.269 7.17157 14.8284C7.73098 15.3878 8.44372 15.7687 9.21964 15.9231C9.99556 16.0774 10.7998 15.9982 11.5307 15.6955C12.2616 15.3927 12.8864 14.88 13.3259 14.2222C13.7654 13.5644 14 12.7911 14 11.9999C14 10.9391 13.5786 9.92166 12.8284 9.17151C12.0783 8.42137 11.0609 7.99994 10 7.99994ZM10 13.9999C9.60444 13.9999 9.21776 13.8826 8.88886 13.6629C8.55996 13.4431 8.30362 13.1308 8.15224 12.7653C8.00087 12.3999 7.96126 11.9977 8.03843 11.6098C8.1156 11.2218 8.30608 10.8654 8.58579 10.5857C8.86549 10.306 9.22186 10.1155 9.60982 10.0384C9.99778 9.9612 10.3999 10.0008 10.7654 10.1522C11.1308 10.3036 11.4432 10.5599 11.6629 10.8888C11.8827 11.2177 12 11.6044 12 11.9999C12 12.5304 11.7893 13.0391 11.4142 13.4142C11.0391 13.7892 10.5304 13.9999 10 13.9999ZM19 10.9999C18.7348 10.9999 18.4804 11.1053 18.2929 11.2928C18.1054 11.4804 18 11.7347 18 11.9999V16.9999C18 17.2652 17.8946 17.5195 17.7071 17.707C17.5196 17.8946 17.2652 17.9999 17 17.9999H3C2.73478 17.9999 2.48043 17.8946 2.29289 17.707C2.10536 17.5195 2 17.2652 2 16.9999V8.99994C2 8.73472 2.10536 8.48037 2.29289 8.29283C2.48043 8.1053 2.73478 7.99994 3 7.99994H5C5.21932 8.01067 5.43607 7.94892 5.6168 7.82421C5.79753 7.69951 5.93219 7.51879 6 7.30994L6.54 5.68994C6.60251 5.49733 6.72202 5.32823 6.88273 5.20502C7.04344 5.08181 7.23776 5.0103 7.44 4.99994H9C9.26522 4.99994 9.51957 4.89458 9.70711 4.70705C9.89464 4.51951 10 4.26516 10 3.99994C10 3.73472 9.89464 3.48037 9.70711 3.29283C9.51957 3.1053 9.26522 2.99994 9 2.99994H7.44C6.80861 2.99971 6.19324 3.19871 5.68152 3.56858C5.16981 3.93845 4.78784 4.46034 4.59 5.05994L4.28 5.99994H3C2.20435 5.99994 1.44129 6.31601 0.87868 6.87862C0.31607 7.44123 0 8.20429 0 8.99994V16.9999C0 17.7956 0.31607 18.5587 0.87868 19.1213C1.44129 19.6839 2.20435 19.9999 3 19.9999H17C17.7956 19.9999 18.5587 19.6839 19.1213 19.1213C19.6839 18.5587 20 17.7956 20 16.9999V11.9999C20 11.7347 19.8946 11.4804 19.7071 11.2928C19.5196 11.1053 19.2652 10.9999 19 10.9999Z" fill="#2A63F6"/>
</svg>
