<svg width="46" height="46" viewBox="0 0 46 46" fill="none" xmlns="http://www.w3.org/2000/svg">
<rect width="46" height="46" rx="8" fill="#2A63F6"/>
<path d="M23.0112 35.0005C29.6251 34.99 35.0051 29.6029 35.0002 22.9952C34.9953 16.3746 29.5858 10.9776 22.9768 10.9997C16.358 11.0224 10.9835 16.4144 11 23.0173C11.0166 29.6342 16.4058 35.0109 23.0112 35.0005ZM23.0093 32.9972C17.506 33.0046 13.0103 28.5166 13.0029 23.0087C12.9956 17.505 17.4833 13.0097 22.9909 13.0023C28.4942 12.995 32.99 17.4829 32.9973 22.9909C33.0047 28.4946 28.5169 32.9899 23.0093 32.9972Z" fill="white"/>
<path d="M22.0035 23.9967C22.0035 24.158 22.0035 24.2714 22.0035 24.3855C22.0066 25.6098 21.9992 26.8334 22.0176 28.0571C22.0244 28.5214 22.3788 28.8802 22.8369 28.9618C23.268 29.0385 23.7316 28.806 23.8978 28.3932C23.9684 28.2178 23.991 28.0135 23.9923 27.8222C24.0009 26.7776 23.9947 25.7331 23.9978 24.6885C23.9978 24.4702 23.9309 24.158 24.0444 24.058C24.1769 23.9408 24.4724 23.9991 24.6975 23.9985C25.7744 23.9948 26.8519 24.0046 27.9287 23.9936C28.6609 23.9856 29.127 23.3735 28.9283 22.7104C28.8112 22.3203 28.4807 22.0437 28.0728 22.0167C27.8049 21.9995 27.5344 22.0051 27.2652 22.0045C26.2613 22.0032 25.2574 21.9989 24.2541 22.0081C24.053 22.01 23.9904 21.956 23.9923 21.7499C24.0015 20.5588 24.0009 19.367 23.9923 18.1759C23.991 17.9845 23.9671 17.7802 23.896 17.6054C23.728 17.1926 23.265 16.962 22.8338 17.0399C22.3757 17.1227 22.047 17.4815 22.0139 17.9471C22.001 18.1256 22.0041 18.3059 22.0041 18.485C22.0035 19.5621 21.9961 20.6397 22.0096 21.7162C22.0127 21.9578 21.9379 22.0118 21.7073 22.0094C20.5323 21.9977 19.3573 22.0002 18.1823 22.0081C17.9904 22.0094 17.7862 22.0314 17.6108 22.1014C17.1981 22.2657 16.9644 22.7288 17.0392 23.1606C17.119 23.6188 17.4783 23.9758 17.9407 23.9825C19.1887 24.0009 20.4373 23.9936 21.6858 23.9967C21.7815 23.9967 21.8772 23.9967 22.0047 23.9967H22.0035Z" fill="white"/>
</svg>
