<svg width="48" height="48" viewBox="0 0 48 48" fill="none" xmlns="http://www.w3.org/2000/svg">
<rect x="0.5" y="0.5" width="47" height="47" rx="23.5" fill="white"/>
<rect x="0.5" y="0.5" width="47" height="47" rx="23.5" stroke="#A4A7AE"/>
<path d="M33.9995 21.6701C33.9363 21.4872 33.8215 21.3266 33.6688 21.2076C33.5162 21.0887 33.3323 21.0166 33.1395 21.0001L27.4495 20.1701L24.8995 15.0001C24.8176 14.8311 24.6898 14.6885 24.5306 14.5887C24.3714 14.489 24.1873 14.436 23.9995 14.436C23.8116 14.436 23.6276 14.489 23.4684 14.5887C23.3092 14.6885 23.1814 14.8311 23.0995 15.0001L20.5495 20.1601L14.8595 21.0001C14.6744 21.0265 14.5004 21.1041 14.3572 21.2243C14.2141 21.3445 14.1074 21.5024 14.0495 21.6801C13.9964 21.8538 13.9917 22.0387 14.0357 22.2148C14.0798 22.391 14.1709 22.5519 14.2995 22.6801L18.4295 26.6801L17.4295 32.3601C17.3891 32.5486 17.404 32.7446 17.4725 32.9248C17.5409 33.1049 17.6599 33.2614 17.8152 33.3755C17.9705 33.4896 18.1555 33.5564 18.3478 33.5679C18.5402 33.5794 18.7317 33.535 18.8995 33.4401L23.9995 30.7701L29.0995 33.4401C29.2398 33.5193 29.3983 33.5607 29.5595 33.5601C29.7713 33.5609 29.9779 33.4944 30.1495 33.3701C30.3046 33.259 30.4247 33.1058 30.4956 32.9286C30.5665 32.7514 30.5852 32.5576 30.5495 32.3701L29.5495 26.6901L33.6795 22.6901C33.8239 22.5678 33.9306 22.407 33.9872 22.2265C34.0439 22.0459 34.0481 21.853 33.9995 21.6701ZM27.8495 25.6701C27.7337 25.7826 27.6469 25.9213 27.5964 26.0745C27.5459 26.2278 27.5333 26.3909 27.5595 26.5501L28.2795 30.7501L24.5195 28.7501C24.3734 28.6779 24.2125 28.6403 24.0495 28.6403C23.8865 28.6403 23.7256 28.6779 23.5795 28.7501L19.8195 30.7501L20.5395 26.5501C20.5657 26.3909 20.5531 26.2278 20.5026 26.0745C20.4521 25.9213 20.3652 25.7826 20.2495 25.6701L17.2495 22.6701L21.4595 22.0601C21.6215 22.0376 21.7755 21.9757 21.908 21.8798C22.0405 21.7839 22.1474 21.657 22.2195 21.5101L23.9995 17.7001L25.8795 21.5201C25.9515 21.667 26.0585 21.7939 26.191 21.8898C26.3235 21.9857 26.4775 22.0476 26.6395 22.0701L30.8495 22.6801L27.8495 25.6701Z" fill="#70A8FF"/>
</svg>
