<svg width="195" height="24" viewBox="0 0 195 24" fill="none" xmlns="http://www.w3.org/2000/svg">
<path d="M32.44 0.499998V23H27.04V2.48L28.36 2.57L19.21 23H13.42L4.27 2.63L5.59 2.51V23H0.19V0.499998H8.92L17.47 20.18H15.19L23.71 0.499998H32.44ZM45.5174 23.48C43.3574 23.48 41.4674 23.1 39.8474 22.34C38.2274 21.58 36.9674 20.52 36.0674 19.16C35.1674 17.8 34.7174 16.23 34.7174 14.45C34.7174 12.65 35.1674 11.08 36.0674 9.74C36.9674 8.38 38.2274 7.32 39.8474 6.56C41.4874 5.8 43.3774 5.42 45.5174 5.42C47.6774 5.42 49.5674 5.8 51.1874 6.56C52.8274 7.32 54.0974 8.38 54.9974 9.74C55.8974 11.08 56.3474 12.65 56.3474 14.45C56.3474 16.25 55.8974 17.83 54.9974 19.19C54.0974 20.53 52.8274 21.58 51.1874 22.34C49.5674 23.1 47.6774 23.48 45.5174 23.48ZM45.5174 19.28C46.6174 19.28 47.5474 19.09 48.3074 18.71C49.0874 18.31 49.6774 17.75 50.0774 17.03C50.4974 16.31 50.7074 15.45 50.7074 14.45C50.7074 13.45 50.4974 12.59 50.0774 11.87C49.6774 11.15 49.0874 10.6 48.3074 10.22C47.5474 9.82 46.6174 9.62 45.5174 9.62C44.4574 9.62 43.5374 9.82 42.7574 10.22C41.9774 10.6 41.3774 11.15 40.9574 11.87C40.5374 12.59 40.3274 13.45 40.3274 14.45C40.3274 15.45 40.5374 16.31 40.9574 17.03C41.3774 17.75 41.9774 18.31 42.7574 18.71C43.5374 19.09 44.4574 19.28 45.5174 19.28ZM58.5121 23V5.9H63.9721V20L62.7121 19.64L72.3421 5.9H79.5121V23H74.0221V8.57L75.3121 8.96L65.4721 23H58.5121ZM93.8805 7.82H99.4605V23H93.8805V7.82ZM87.2505 5.9H106.12V10.13H87.2505V5.9ZM116.971 23.48C114.931 23.48 113.101 23.1 111.481 22.34C109.881 21.58 108.621 20.52 107.701 19.16C106.781 17.8 106.321 16.21 106.321 14.39C106.321 12.61 106.761 11.05 107.641 9.71C108.521 8.37 109.731 7.32 111.271 6.56C112.831 5.8 114.591 5.42 116.551 5.42C118.551 5.42 120.271 5.86 121.711 6.74C123.151 7.62 124.261 8.86 125.041 10.46C125.821 12.06 126.211 13.94 126.211 16.1H110.791V12.59H123.151L121.141 13.85C121.081 12.91 120.851 12.12 120.451 11.48C120.071 10.82 119.561 10.32 118.921 9.98C118.281 9.62 117.521 9.44 116.641 9.44C115.681 9.44 114.851 9.63 114.151 10.01C113.451 10.39 112.901 10.92 112.501 11.6C112.121 12.28 111.931 13.07 111.931 13.97C111.931 15.11 112.181 16.08 112.681 16.88C113.201 17.68 113.941 18.29 114.901 18.71C115.881 19.13 117.071 19.34 118.471 19.34C119.751 19.34 121.031 19.17 122.311 18.83C123.591 18.47 124.741 17.97 125.761 17.33V20.96C124.601 21.76 123.271 22.38 121.771 22.82C120.291 23.26 118.691 23.48 116.971 23.48ZM148.367 15.89C148.207 17.39 147.647 18.71 146.687 19.85C145.747 20.99 144.527 21.88 143.027 22.52C141.547 23.16 139.877 23.48 138.017 23.48C135.957 23.48 134.137 23.1 132.557 22.34C130.977 21.58 129.747 20.52 128.867 19.16C127.987 17.8 127.547 16.23 127.547 14.45C127.547 12.67 127.987 11.1 128.867 9.74C129.747 8.38 130.977 7.32 132.557 6.56C134.137 5.8 135.957 5.42 138.017 5.42C139.877 5.42 141.547 5.74 143.027 6.38C144.527 7.02 145.747 7.91 146.687 9.05C147.647 10.17 148.207 11.49 148.367 13.01H142.817C142.597 11.91 142.047 11.07 141.167 10.49C140.307 9.91 139.257 9.62 138.017 9.62C137.037 9.62 136.177 9.81 135.437 10.19C134.717 10.57 134.157 11.12 133.757 11.84C133.357 12.56 133.157 13.43 133.157 14.45C133.157 15.47 133.357 16.34 133.757 17.06C134.157 17.78 134.717 18.33 135.437 18.71C136.177 19.09 137.037 19.28 138.017 19.28C139.277 19.28 140.337 18.98 141.197 18.38C142.057 17.76 142.597 16.93 142.817 15.89H148.367ZM155.039 7.82H160.619V23H155.039V7.82ZM148.409 5.9H167.279V10.13H148.409V5.9ZM188.916 5.9H194.496V23H188.916V5.9ZM168.906 23V5.9H174.426V21.59L172.686 19.04H179.046C179.886 19.04 180.536 18.84 180.996 18.44C181.456 18.04 181.686 17.47 181.686 16.73C181.686 15.99 181.456 15.42 180.996 15.02C180.536 14.6 179.886 14.39 179.046 14.39H172.686V10.61H179.946C181.426 10.61 182.716 10.87 183.816 11.39C184.916 11.89 185.766 12.61 186.366 13.55C186.986 14.47 187.296 15.55 187.296 16.79C187.296 18.03 186.986 19.12 186.366 20.06C185.766 21 184.916 21.73 183.816 22.25C182.736 22.75 181.466 23 180.006 23H168.906Z" fill="#1C2234"/>
</svg>
