<svg width="138" height="36" viewBox="0 0 138 36" fill="none" xmlns="http://www.w3.org/2000/svg">
<path d="M0 13.4634H7.82977V25.6585C7.82977 26.5366 7.97657 27.9024 9.00423 28.8293C9.78721 29.5122 10.8149 29.6585 11.7446 29.6585C12.7234 29.6585 13.6532 29.561 14.534 28.7317C15.5127 27.7561 15.6595 26.6341 15.6595 25.6585V13.4634H23.4893V27.0732C23.4893 28.9268 23.3425 30.9268 21.385 32.9268C18.6936 35.7073 14.9255 36 11.9404 36C8.66168 36 4.64892 35.6585 2.05531 32.878C0.391488 31.122 0 29.1707 0 27.0732V13.4634Z" fill="white"/>
<path d="M28.8646 13.4634H36.6944V35.2683H28.8646V13.4634ZM28.3753 4.39025C28.3753 1.95122 30.3327 0 32.7795 0C35.2263 0 37.1837 1.95122 37.1837 4.39025C37.1837 6.82927 35.2263 8.78049 32.7795 8.78049C30.3327 8.78049 28.3753 6.82927 28.3753 4.39025Z" fill="white"/>
<path d="M63.6363 13.4634L53.4087 28.878H62.5597V35.2683H40.2939L50.6194 19.8537H41.8109V13.4634H63.6363Z" fill="white"/>
<path d="M88.9168 13.4634L78.6891 28.878H87.8402V35.2683H65.5743L75.8998 19.8537H67.0913V13.4634H88.9168Z" fill="white"/>
<path d="M115.763 24.9756V25.8049H99.4675C99.4675 26.9756 99.9079 28.5366 100.838 29.4634C101.327 29.9512 102.306 30.5366 104.067 30.5366C104.263 30.5366 105.633 30.4878 106.612 29.9512C107.101 29.6585 107.64 29.1707 107.982 28.4878H115.47C115.127 29.7073 114.442 31.4146 112.827 32.9756C111.212 34.5366 108.667 36 103.921 36C101.033 36 97.5589 35.3659 94.8675 32.6829C93.4483 31.2683 91.6377 28.5854 91.6377 24.439C91.6377 20.7805 93.0079 17.8537 94.9164 16C96.727 14.2439 99.5653 12.8293 103.872 12.8293C106.416 12.8293 109.695 13.3659 112.289 15.8049C115.372 18.7317 115.763 22.5366 115.763 24.9756ZM99.7121 21.3171H108.57C108.374 20.4878 107.884 19.561 107.297 18.9756C106.27 17.9512 104.85 17.8049 104.067 17.8049C102.746 17.8049 101.719 18.1463 100.887 18.9756C100.348 19.561 99.8589 20.3415 99.7121 21.3171Z" fill="white"/>
<path d="M118.915 33.4634L121.704 28.0488C122.634 28.7317 123.76 29.3171 124.836 29.6585C125.815 30 127.038 30.1951 127.87 30.1951C128.457 30.1951 129.387 30.0488 129.877 29.6098C130.219 29.2683 130.268 28.9756 130.268 28.5854C130.268 28.2439 130.219 27.9024 129.877 27.6098C129.387 27.1707 128.604 27.0244 127.821 26.8293L125.766 26.3415C124.689 26.0976 123.123 25.7073 121.949 24.439C121.117 23.561 120.53 22.3415 120.53 20.6829C120.53 18.5854 121.362 16.6341 122.585 15.3659C124.249 13.6585 127.185 12.7317 130.415 12.7317C133.645 12.7317 136.14 13.6098 137.413 14.1463L134.77 19.122C133.694 18.6341 132.079 18.0488 130.66 18.0488C129.877 18.0488 129.338 18.1951 128.849 18.4878C128.409 18.7317 128.164 19.0732 128.164 19.561C128.164 20.2439 128.604 20.5854 129.094 20.7805C129.828 21.0732 130.464 21.0732 131.687 21.4146L133.106 21.8049C134.134 22.0976 135.7 22.878 136.336 23.5122C137.413 24.5366 138 26.2439 138 27.8537C138 30.4878 136.874 32.2439 135.798 33.2683C133.253 35.8049 129.534 36 127.723 36C125.766 36 122.683 35.7561 118.915 33.4634Z" fill="white"/>
</svg>
