<svg width="73" height="72" viewBox="0 0 73 72" fill="none" xmlns="http://www.w3.org/2000/svg">
<path d="M63.6272 63.5956L69.3094 71.92L50.8612 72L49.3246 69.7111C45.3366 71.1956 41.0107 72 36.5 72C16.3844 72 0.0720988 55.9556 0 36.1289V36C0 16.1156 16.3394 0 36.5 0C56.6606 0 72.9009 16.0178 72.9955 35.8178C73 35.88 73 35.9378 73 36C73 43.5822 70.6252 50.6178 66.5652 56.4178L57.5844 43.1689C58.373 40.9244 58.8055 38.5111 58.8055 36V35.8756C58.738 23.9067 48.8785 14.2222 36.7253 14.2222C24.5722 14.2222 14.6451 23.9733 14.6451 36V36.0667C14.6811 48.0622 24.5541 57.7778 36.7253 57.7778C38.1988 57.7778 39.6363 57.6356 41.0242 57.3689L26.663 36.0178L44.7463 35.9378L53.6865 49.0311L63.6272 63.5956Z" fill="white"/>
</svg>
