<svg width="49" height="49" viewBox="0 0 49 49" fill="none" xmlns="http://www.w3.org/2000/svg">
<path d="M42.7086 43.2803L46.5228 48.9456L34.1397 49L33.1083 47.4423C30.4314 48.4525 27.5277 49 24.5 49C10.9978 49 0.0483951 38.0809 0 24.5877V24.5C0 10.9675 10.9675 0 24.5 0C38.0325 0 48.9335 10.901 48.997 24.376C49 24.4183 49 24.4577 49 24.5C49 29.6601 47.406 34.4482 44.6807 38.3954L38.6525 29.3788C39.1819 27.8514 39.4722 26.209 39.4722 24.5V24.4153C39.4269 16.2698 32.8088 9.67901 24.6512 9.67901C16.4936 9.67901 9.83025 16.3152 9.83025 24.5V24.5454C9.85444 32.709 16.4815 39.321 24.6512 39.321C25.6403 39.321 26.6052 39.2242 27.5368 39.0427L17.8971 24.5121L30.0352 24.4577L36.0362 33.3684L42.7086 43.2803Z" fill="#70A8FF"/>
</svg>
