<svg width="260" height="195" viewBox="0 0 260 195" fill="none" xmlns="http://www.w3.org/2000/svg">
<path d="M18.1204 28.9999V15.2399L19.8804 17.2399C18.4937 17.8533 17.1071 18.3199 15.7204 18.6399C14.3604 18.9333 12.9737 19.0799 11.5604 19.0799C8.36039 19.0799 5.93372 18.3466 4.28039 16.8799C2.62706 15.3866 1.80039 13.1866 1.80039 10.2799V0.439941H7.84039V9.19994C7.84039 10.9599 8.24039 12.2133 9.04039 12.9599C9.86706 13.7066 11.1604 14.0799 12.9204 14.0799C14.0137 14.0799 15.1471 13.9333 16.3204 13.6399C17.4937 13.3466 18.7737 12.8799 20.1604 12.2399L18.1204 15.7999V0.439941H24.1604V28.9999H18.1204Z" fill="black"/>
<path d="M34.0704 28.9999V11.6399H27.3504V7.15994H46.7504V11.6399H40.0304V28.9999H34.0704Z" fill="black"/>
<path d="M58.3151 29.3999C56.6617 29.3999 55.1684 29.1466 53.8351 28.6399C52.5284 28.1066 51.4084 27.3599 50.4751 26.3999C49.5684 25.4133 48.8751 24.2266 48.3951 22.8399C47.9151 21.4266 47.6751 19.8266 47.6751 18.0399C47.6751 15.7199 48.1017 13.7199 48.9551 12.0399C49.8351 10.3333 51.0751 9.02661 52.6751 8.11994C54.3017 7.21327 56.2217 6.75994 58.4351 6.75994C60.6484 6.75994 62.5417 7.21327 64.1151 8.11994C65.7151 9.02661 66.9417 10.3199 67.7951 11.9999C68.6484 13.6799 69.0751 15.6933 69.0751 18.0399C69.0751 19.7999 68.8217 21.3866 68.3151 22.7999C67.8351 24.2133 67.1284 25.4133 66.1951 26.3999C65.2617 27.3599 64.1284 28.1066 62.7951 28.6399C61.4884 29.1466 59.9951 29.3999 58.3151 29.3999ZM58.3951 24.8399C59.9951 24.8399 61.1551 24.2933 61.8751 23.1999C62.6217 22.1066 62.9951 20.3866 62.9951 18.0399C62.9951 15.6933 62.6217 13.9866 61.8751 12.9199C61.1551 11.8533 59.9817 11.3199 58.3551 11.3199C56.7551 11.3199 55.5817 11.8533 54.8351 12.9199C54.1151 13.9866 53.7551 15.6933 53.7551 18.0399C53.7551 20.3866 54.1284 22.1066 54.8751 23.1999C55.6217 24.2933 56.7951 24.8399 58.3951 24.8399Z" fill="black"/>
<path d="M85.8501 28.9999V11.6399H79.1301V7.15994H98.5301V11.6399H91.8101V28.9999H85.8501Z" fill="black"/>
<path d="M106.445 29.3999C105.085 29.3999 103.899 29.1199 102.885 28.5599C101.899 27.9999 101.125 27.2266 100.565 26.2399C100.005 25.2266 99.7254 24.0399 99.7254 22.6799C99.7254 20.3599 100.525 18.6133 102.125 17.4399C103.752 16.2666 106.179 15.6266 109.405 15.5199L113.045 15.3999V14.5199C113.045 13.3466 112.725 12.5066 112.085 11.9999C111.472 11.4666 110.485 11.1999 109.125 11.1999C108.219 11.1999 107.245 11.3199 106.205 11.5599C105.192 11.7999 104.032 12.1733 102.725 12.6799L101.005 8.51994C102.365 7.90661 103.765 7.46661 105.205 7.19994C106.672 6.90661 108.179 6.75994 109.725 6.75994C112.739 6.75994 115.032 7.38661 116.605 8.63994C118.179 9.89328 118.965 11.8266 118.965 14.4399V28.9999H114.805L113.645 26.0399H113.485C112.872 26.8133 112.232 27.4533 111.565 27.9599C110.925 28.4666 110.192 28.8266 109.365 29.0399C108.565 29.2799 107.592 29.3999 106.445 29.3999ZM108.725 25.0399C109.979 25.0399 111.005 24.6666 111.805 23.9199C112.632 23.1466 113.045 22.0666 113.045 20.6799V18.8799L110.885 18.9599C108.965 19.0399 107.632 19.3733 106.885 19.9599C106.139 20.5466 105.765 21.3199 105.765 22.2799C105.765 23.1866 106.045 23.8799 106.605 24.3599C107.192 24.8133 107.899 25.0399 108.725 25.0399Z" fill="black"/>
<path d="M138.714 28.9999L131.234 18.0399L131.154 17.7199L138.834 7.15994H144.994L136.834 18.3999L136.634 16.1999L145.594 28.9999H138.714ZM124.354 28.9999V7.15994H130.314V28.9999H124.354ZM129.514 20.1599V15.5999H133.754V20.1599H129.514Z" fill="black"/>
<path d="M156.581 29.3999C154.927 29.3999 153.434 29.1466 152.101 28.6399C150.794 28.1066 149.674 27.3599 148.741 26.3999C147.834 25.4133 147.141 24.2266 146.661 22.8399C146.181 21.4266 145.941 19.8266 145.941 18.0399C145.941 15.7199 146.367 13.7199 147.221 12.0399C148.101 10.3333 149.341 9.02661 150.941 8.11994C152.567 7.21327 154.487 6.75994 156.701 6.75994C158.914 6.75994 160.807 7.21327 162.381 8.11994C163.981 9.02661 165.207 10.3199 166.061 11.9999C166.914 13.6799 167.341 15.6933 167.341 18.0399C167.341 19.7999 167.087 21.3866 166.581 22.7999C166.101 24.2133 165.394 25.4133 164.461 26.3999C163.527 27.3599 162.394 28.1066 161.061 28.6399C159.754 29.1466 158.261 29.3999 156.581 29.3999ZM156.661 24.8399C158.261 24.8399 159.421 24.2933 160.141 23.1999C160.887 22.1066 161.261 20.3866 161.261 18.0399C161.261 15.6933 160.887 13.9866 160.141 12.9199C159.421 11.8533 158.247 11.3199 156.621 11.3199C155.021 11.3199 153.847 11.8533 153.101 12.9199C152.381 13.9866 152.021 15.6933 152.021 18.0399C152.021 20.3866 152.394 22.1066 153.141 23.1999C153.887 24.2933 155.061 24.8399 156.661 24.8399Z" fill="black"/>
<path d="M181.264 29.3999C179.078 29.3999 177.131 28.9999 175.424 28.1999C173.744 27.3733 172.424 26.1333 171.464 24.4799C170.504 22.8266 170.024 20.7466 170.024 18.2399C170.024 15.6799 170.451 13.5599 171.304 11.8799C172.184 10.1733 173.384 8.89328 174.904 8.03994C176.451 7.18661 178.211 6.75994 180.184 6.75994C182.211 6.75994 183.944 7.14661 185.384 7.91994C186.851 8.69328 187.984 9.81328 188.784 11.2799C189.584 12.7466 189.984 14.5466 189.984 16.6799V19.7199H176.024C176.104 21.3466 176.624 22.6266 177.584 23.5599C178.544 24.4933 179.931 24.9599 181.744 24.9599C182.998 24.9599 184.171 24.8266 185.264 24.5599C186.358 24.2666 187.518 23.8266 188.744 23.2399V27.8399C187.678 28.3733 186.558 28.7599 185.384 28.9999C184.211 29.2666 182.838 29.3999 181.264 29.3999ZM176.144 15.5999H184.384C184.384 14.7466 184.224 13.9866 183.904 13.3199C183.611 12.6533 183.171 12.1199 182.584 11.7199C181.998 11.3199 181.251 11.1199 180.344 11.1199C179.198 11.1199 178.238 11.4933 177.464 12.2399C176.718 12.9599 176.278 14.0799 176.144 15.5999Z" fill="black"/>
<path d="M22.5604 85.9199L18.3204 80.8399C17.1471 81.1333 15.9471 81.2799 14.7204 81.2799C12.1071 81.2799 9.70706 80.6666 7.52039 79.4399C5.33372 78.2133 3.60039 76.5199 2.32039 74.3599C1.04039 72.1733 0.400391 69.7066 0.400391 66.9599C0.400391 64.2399 1.04039 61.7999 2.32039 59.6399C3.60039 57.4533 5.33372 55.7466 7.52039 54.5199C9.70706 53.2933 12.1071 52.6799 14.7204 52.6799C17.3604 52.6799 19.7604 53.2933 21.9204 54.5199C24.1071 55.7466 25.8271 57.4533 27.0804 59.6399C28.3604 61.7999 29.0004 64.2399 29.0004 66.9599C29.0004 69.4399 28.4671 71.7066 27.4004 73.7599C26.3604 75.7866 24.9337 77.4399 23.1204 78.7199L29.5204 85.9199H22.5604ZM6.16039 66.9599C6.16039 68.8266 6.52039 70.4666 7.24039 71.8799C7.96039 73.2933 8.96039 74.3866 10.2404 75.1599C11.5471 75.9066 13.0404 76.2799 14.7204 76.2799C16.4004 76.2799 17.8804 75.9066 19.1604 75.1599C20.4404 74.3866 21.4404 73.2933 22.1604 71.8799C22.8804 70.4666 23.2404 68.8266 23.2404 66.9599C23.2404 65.0933 22.8804 63.4666 22.1604 62.0799C21.4404 60.6666 20.4404 59.5866 19.1604 58.8399C17.8804 58.0933 16.4004 57.7199 14.7204 57.7199C13.0404 57.7199 11.5471 58.0933 10.2404 58.8399C8.96039 59.5866 7.96039 60.6666 7.24039 62.0799C6.52039 63.4666 6.16039 65.0933 6.16039 66.9599Z" fill="black"/>
<path d="M53.3648 58.8399V80.9999H47.7248V78.1999C47.0048 79.1599 46.0581 79.9199 44.8848 80.4799C43.7381 81.0133 42.4848 81.2799 41.1248 81.2799C39.3914 81.2799 37.8581 80.9199 36.5248 80.1999C35.1914 79.4533 34.1381 78.3733 33.3648 76.9599C32.6181 75.5199 32.2448 73.8133 32.2448 71.8399V58.8399H37.8448V71.0399C37.8448 72.7999 38.2848 74.1599 39.1648 75.1199C40.0448 76.0533 41.2448 76.5199 42.7648 76.5199C44.3114 76.5199 45.5248 76.0533 46.4048 75.1199C47.2848 74.1599 47.7248 72.7999 47.7248 71.0399V58.8399H53.3648Z" fill="black"/>
<path d="M60.9301 56.1999C59.9434 56.1999 59.1167 55.8933 58.4501 55.2799C57.8101 54.6399 57.4901 53.8533 57.4901 52.9199C57.4901 51.9866 57.8101 51.2133 58.4501 50.5999C59.1167 49.9599 59.9434 49.6399 60.9301 49.6399C61.9167 49.6399 62.7301 49.9599 63.3701 50.5999C64.0367 51.2133 64.3701 51.9866 64.3701 52.9199C64.3701 53.8533 64.0367 54.6399 63.3701 55.2799C62.7301 55.8933 61.9167 56.1999 60.9301 56.1999ZM63.6901 58.8399V80.9999H58.0901V58.8399H63.6901Z" fill="black"/>
<path d="M73.5429 76.3999H83.4229V80.9999H67.1829V76.4799L76.8629 63.4399H67.2229V58.8399H83.3029V63.3599L73.5429 76.3999Z" fill="black"/>
<path d="M92.0788 76.3999H101.959V80.9999H85.7188V76.4799L95.3988 63.4399H85.7588V58.8399H101.839V63.3599L92.0788 76.3999Z" fill="black"/>
<path d="M126.095 69.4399C126.095 70.2399 126.041 70.9599 125.935 71.5999H109.735C109.868 73.1999 110.428 74.4533 111.415 75.3599C112.401 76.2666 113.615 76.7199 115.055 76.7199C117.135 76.7199 118.615 75.8266 119.495 74.0399H125.535C124.895 76.1733 123.668 77.9333 121.855 79.3199C120.041 80.6799 117.815 81.3599 115.175 81.3599C113.041 81.3599 111.121 80.8933 109.415 79.9599C107.735 78.9999 106.415 77.6533 105.455 75.9199C104.521 74.1866 104.055 72.1866 104.055 69.9199C104.055 67.6266 104.521 65.6133 105.455 63.8799C106.388 62.1466 107.695 60.8133 109.375 59.8799C111.055 58.9466 112.988 58.4799 115.175 58.4799C117.281 58.4799 119.161 58.9333 120.815 59.8399C122.495 60.7466 123.788 62.0399 124.695 63.7199C125.628 65.3733 126.095 67.2799 126.095 69.4399ZM120.295 67.8399C120.268 66.3999 119.748 65.2533 118.735 64.3999C117.721 63.5199 116.481 63.0799 115.015 63.0799C113.628 63.0799 112.455 63.5066 111.495 64.3599C110.561 65.1866 109.988 66.3466 109.775 67.8399H120.295Z" fill="black"/>
<path d="M137.862 81.3599C136.049 81.3599 134.422 81.0399 132.982 80.3999C131.542 79.7333 130.396 78.8399 129.542 77.7199C128.716 76.5999 128.262 75.3599 128.182 73.9999H133.822C133.929 74.8533 134.342 75.5599 135.062 76.1199C135.809 76.6799 136.729 76.9599 137.822 76.9599C138.889 76.9599 139.716 76.7466 140.302 76.3199C140.916 75.8933 141.222 75.3466 141.222 74.6799C141.222 73.9599 140.849 73.4266 140.102 73.0799C139.382 72.7066 138.222 72.3066 136.622 71.8799C134.969 71.4799 133.609 71.0666 132.542 70.6399C131.502 70.2133 130.596 69.5599 129.822 68.6799C129.076 67.7999 128.702 66.6133 128.702 65.1199C128.702 63.8933 129.049 62.7733 129.742 61.7599C130.462 60.7466 131.476 59.9466 132.782 59.3599C134.116 58.7733 135.676 58.4799 137.462 58.4799C140.102 58.4799 142.209 59.1466 143.782 60.4799C145.356 61.7866 146.222 63.5599 146.382 65.7999H141.022C140.942 64.9199 140.569 64.2266 139.902 63.7199C139.262 63.1866 138.396 62.9199 137.302 62.9199C136.289 62.9199 135.502 63.1066 134.942 63.4799C134.409 63.8533 134.142 64.3733 134.142 65.0399C134.142 65.7866 134.516 66.3599 135.262 66.7599C136.009 67.1333 137.169 67.5199 138.742 67.9199C140.342 68.3199 141.662 68.7333 142.702 69.1599C143.742 69.5866 144.636 70.2533 145.382 71.1599C146.156 72.0399 146.556 73.2133 146.582 74.6799C146.582 75.9599 146.222 77.1066 145.502 78.1199C144.809 79.1333 143.796 79.9333 142.462 80.5199C141.156 81.0799 139.622 81.3599 137.862 81.3599Z" fill="black"/>
<path d="M158.179 52.1199C160.952 52.1199 163.179 52.8799 164.859 54.3999C166.566 55.8933 167.419 57.9599 167.419 60.5999C167.419 63.2133 166.579 65.2133 164.899 66.5999C163.219 67.9599 160.992 68.6399 158.219 68.6399L158.059 71.7199H153.139L152.939 64.9199H154.739C157.059 64.9199 158.846 64.6133 160.099 63.9999C161.352 63.3866 161.979 62.2666 161.979 60.6399C161.979 59.4666 161.632 58.5333 160.939 57.8399C160.272 57.1466 159.352 56.7999 158.179 56.7999C156.952 56.7999 155.992 57.1333 155.299 57.7999C154.632 58.4666 154.299 59.3866 154.299 60.5599H149.019C148.992 58.9333 149.339 57.4799 150.059 56.1999C150.779 54.9199 151.832 53.9199 153.219 53.1999C154.632 52.4799 156.286 52.1199 158.179 52.1199ZM155.579 81.2799C154.566 81.2799 153.726 80.9733 153.059 80.3599C152.419 79.7199 152.099 78.9333 152.099 77.9999C152.099 77.0666 152.419 76.2933 153.059 75.6799C153.726 75.0399 154.566 74.7199 155.579 74.7199C156.566 74.7199 157.379 75.0399 158.019 75.6799C158.659 76.2933 158.979 77.0666 158.979 77.9999C158.979 78.9333 158.659 79.7199 158.019 80.3599C157.379 80.9733 156.566 81.2799 155.579 81.2799Z" fill="black"/>
<path d="M19.5204 133L10.0404 118.6V117.92L19.1204 104.44H25.5204L15.8404 118.64L15.9204 117.2L26.5204 133H19.5204ZM2.60039 133V104.44H8.60039V133H2.60039ZM5.40039 120.68V115.64H12.4004V120.68H5.40039Z" fill="black"/>
<path d="M29.1348 142.6V111.16H33.9748L34.8148 114H35.0948C35.4948 113.413 35.9748 112.88 36.5348 112.4C37.0948 111.893 37.7614 111.493 38.5348 111.2C39.3348 110.907 40.2548 110.76 41.2948 110.76C43.7481 110.76 45.7348 111.72 47.2548 113.64C48.7748 115.533 49.5348 118.333 49.5348 122.04C49.5348 124.52 49.1748 126.613 48.4548 128.32C47.7348 130 46.7481 131.267 45.4948 132.12C44.2414 132.973 42.7881 133.4 41.1348 133.4C40.0948 133.4 39.1881 133.267 38.4148 133C37.6681 132.733 37.0281 132.387 36.4948 131.96C35.9614 131.533 35.4948 131.08 35.0948 130.6H34.7748C34.8814 131.107 34.9614 131.64 35.0148 132.2C35.0681 132.733 35.0948 133.267 35.0948 133.8V142.6H29.1348ZM39.4548 128.56C40.3614 128.56 41.1081 128.307 41.6948 127.8C42.2814 127.293 42.7214 126.547 43.0148 125.56C43.3081 124.573 43.4548 123.373 43.4548 121.96C43.4548 119.827 43.1214 118.227 42.4548 117.16C41.8148 116.067 40.7881 115.52 39.3748 115.52C38.3348 115.52 37.5081 115.733 36.8948 116.16C36.2814 116.587 35.8281 117.24 35.5348 118.12C35.2681 118.973 35.1214 120.053 35.0948 121.36V122C35.0948 123.413 35.2281 124.613 35.4948 125.6C35.7614 126.56 36.2148 127.293 36.8548 127.8C37.4948 128.307 38.3614 128.56 39.4548 128.56Z" fill="black"/>
<path d="M58.8454 133.4C57.4854 133.4 56.2987 133.12 55.2854 132.56C54.2987 132 53.5254 131.227 52.9654 130.24C52.4054 129.227 52.1254 128.04 52.1254 126.68C52.1254 124.36 52.9254 122.613 54.5254 121.44C56.1521 120.267 58.5787 119.627 61.8054 119.52L65.4454 119.4V118.52C65.4454 117.347 65.1254 116.507 64.4854 116C63.8721 115.467 62.8854 115.2 61.5254 115.2C60.6187 115.2 59.6454 115.32 58.6054 115.56C57.5921 115.8 56.4321 116.173 55.1254 116.68L53.4054 112.52C54.7654 111.907 56.1654 111.467 57.6054 111.2C59.0721 110.907 60.5787 110.76 62.1254 110.76C65.1387 110.76 67.4321 111.387 69.0054 112.64C70.5787 113.893 71.3654 115.827 71.3654 118.44V133H67.2054L66.0454 130.04H65.8854C65.2721 130.813 64.6321 131.453 63.9654 131.96C63.3254 132.467 62.5921 132.827 61.7654 133.04C60.9654 133.28 59.9921 133.4 58.8454 133.4ZM61.1254 129.04C62.3787 129.04 63.4054 128.667 64.2054 127.92C65.0321 127.147 65.4454 126.067 65.4454 124.68V122.88L63.2854 122.96C61.3654 123.04 60.0321 123.373 59.2854 123.96C58.5387 124.547 58.1654 125.32 58.1654 126.28C58.1654 127.187 58.4454 127.88 59.0054 128.36C59.5921 128.813 60.2987 129.04 61.1254 129.04Z" fill="black"/>
<path d="M80.2829 133V115.64H73.5629V111.16H92.9629V115.64H86.2429V133H80.2829Z" fill="black"/>
<path d="M110.118 133L102.638 122.04L102.558 121.72L110.238 111.16H116.398L108.238 122.4L108.038 120.2L116.998 133H110.118ZM95.7582 133V111.16H101.718V133H95.7582ZM100.918 124.16V119.6H105.158V124.16H100.918Z" fill="black"/>
<path d="M123.945 133.4C122.585 133.4 121.399 133.12 120.385 132.56C119.399 132 118.625 131.227 118.065 130.24C117.505 129.227 117.225 128.04 117.225 126.68C117.225 124.36 118.025 122.613 119.625 121.44C121.252 120.267 123.679 119.627 126.905 119.52L130.545 119.4V118.52C130.545 117.347 130.225 116.507 129.585 116C128.972 115.467 127.985 115.2 126.625 115.2C125.719 115.2 124.745 115.32 123.705 115.56C122.692 115.8 121.532 116.173 120.225 116.68L118.505 112.52C119.865 111.907 121.265 111.467 122.705 111.2C124.172 110.907 125.679 110.76 127.225 110.76C130.239 110.76 132.532 111.387 134.105 112.64C135.679 113.893 136.465 115.827 136.465 118.44V133H132.305L131.145 130.04H130.985C130.372 130.813 129.732 131.453 129.065 131.96C128.425 132.467 127.692 132.827 126.865 133.04C126.065 133.28 125.092 133.4 123.945 133.4ZM126.225 129.04C127.479 129.04 128.505 128.667 129.305 127.92C130.132 127.147 130.545 126.067 130.545 124.68V122.88L128.385 122.96C126.465 123.04 125.132 123.373 124.385 123.96C123.639 124.547 123.265 125.32 123.265 126.28C123.265 127.187 123.545 127.88 124.105 128.36C124.692 128.813 125.399 129.04 126.225 129.04Z" fill="black"/>
<path d="M139.054 133L146.494 122.28L146.894 125C144.947 124.653 143.427 123.88 142.334 122.68C141.24 121.48 140.694 119.96 140.694 118.12C140.694 115.907 141.48 114.2 143.054 113C144.654 111.773 146.84 111.16 149.614 111.16H159.774V133H153.814L153.854 125.36H150.734L145.654 133H139.054ZM150.334 121.12H153.854V115.44H150.334C149.16 115.44 148.28 115.68 147.694 116.16C147.107 116.613 146.814 117.28 146.814 118.16C146.814 119.12 147.107 119.853 147.694 120.36C148.307 120.867 149.187 121.12 150.334 121.12Z" fill="black"/>
<path d="M2.20039 185V163.16H8.00039V171.8C8.00039 172.52 7.97372 173.347 7.92039 174.28C7.86706 175.213 7.80039 176.08 7.72039 176.88C7.66706 177.68 7.60039 178.253 7.52039 178.6H7.64039L15.9604 163.16H22.7604V185H16.9604V176.28C16.9604 175.427 16.9871 174.573 17.0404 173.72C17.0937 172.84 17.1471 172.04 17.2004 171.32C17.2804 170.6 17.3471 170.04 17.4004 169.64H17.2404L9.00039 185H2.20039Z" fill="black"/>
<path d="M28.3535 185V163.16H34.3135V171.68H42.2335V163.16H48.1935V185H42.2335V176.24H34.3135V185H28.3535Z" fill="black"/>
<path d="M65.5635 185.4C62.7368 185.4 60.3369 184.96 58.3635 184.08C56.3902 183.2 54.8835 181.92 53.8435 180.24C52.8302 178.533 52.3235 176.453 52.3235 174C52.3235 171.573 52.8302 169.52 53.8435 167.84C54.8568 166.16 56.3502 164.893 58.3235 164.04C60.2969 163.16 62.7102 162.72 65.5635 162.72H68.0435C70.8969 162.72 73.3102 163.16 75.2835 164.04C77.2569 164.893 78.7502 166.16 79.7635 167.84C80.7769 169.52 81.2835 171.573 81.2835 174C81.2835 176.453 80.7635 178.533 79.7235 180.24C78.7102 181.92 77.2169 183.2 75.2435 184.08C73.2969 184.96 70.8969 185.4 68.0435 185.4H65.5635ZM63.9235 194.6V183.84L64.0035 181.76V166.04L63.9235 164.28V154.6H69.6835V164.28L69.6035 165.96V181.76L69.6835 184.28V194.6H63.9235ZM64.8035 180.96H68.8035C70.9902 180.96 72.6169 180.387 73.6835 179.24C74.7502 178.093 75.2835 176.36 75.2835 174.04C75.2835 171.747 74.7502 170.027 73.6835 168.88C72.6435 167.733 71.0169 167.16 68.8035 167.16H64.8035C62.5902 167.16 60.9502 167.733 59.8835 168.88C58.8435 170.027 58.3235 171.747 58.3235 174.04C58.3235 176.36 58.8569 178.093 59.9235 179.24C60.9902 180.387 62.6169 180.96 64.8035 180.96Z" fill="black"/>
<path d="M94.5463 185.4C92.893 185.4 91.3997 185.147 90.0663 184.64C88.7597 184.107 87.6397 183.36 86.7063 182.4C85.7997 181.413 85.1063 180.227 84.6263 178.84C84.1463 177.427 83.9063 175.827 83.9063 174.04C83.9063 171.72 84.333 169.72 85.1863 168.04C86.0663 166.333 87.3063 165.027 88.9063 164.12C90.533 163.213 92.453 162.76 94.6663 162.76C96.8797 162.76 98.773 163.213 100.346 164.12C101.946 165.027 103.173 166.32 104.026 168C104.88 169.68 105.306 171.693 105.306 174.04C105.306 175.8 105.053 177.387 104.546 178.8C104.066 180.213 103.36 181.413 102.426 182.4C101.493 183.36 100.36 184.107 99.0263 184.64C97.7197 185.147 96.2263 185.4 94.5463 185.4ZM94.6263 180.84C96.2263 180.84 97.3863 180.293 98.1063 179.2C98.853 178.107 99.2263 176.387 99.2263 174.04C99.2263 171.693 98.853 169.987 98.1063 168.92C97.3863 167.853 96.213 167.32 94.5863 167.32C92.9863 167.32 91.813 167.853 91.0663 168.92C90.3463 169.987 89.9863 171.693 89.9863 174.04C89.9863 176.387 90.3597 178.107 91.1063 179.2C91.853 180.293 93.0263 180.84 94.6263 180.84Z" fill="black"/>
<path d="M109.43 194.6V163.16H114.27L115.11 166H115.39C115.79 165.413 116.27 164.88 116.83 164.4C117.39 163.893 118.057 163.493 118.83 163.2C119.63 162.907 120.55 162.76 121.59 162.76C124.043 162.76 126.03 163.72 127.55 165.64C129.07 167.533 129.83 170.333 129.83 174.04C129.83 176.52 129.47 178.613 128.75 180.32C128.03 182 127.043 183.267 125.79 184.12C124.537 184.973 123.083 185.4 121.43 185.4C120.39 185.4 119.483 185.267 118.71 185C117.963 184.733 117.323 184.387 116.79 183.96C116.257 183.533 115.79 183.08 115.39 182.6H115.07C115.177 183.107 115.257 183.64 115.31 184.2C115.363 184.733 115.39 185.267 115.39 185.8V194.6H109.43ZM119.75 180.56C120.657 180.56 121.403 180.307 121.99 179.8C122.577 179.293 123.017 178.547 123.31 177.56C123.603 176.573 123.75 175.373 123.75 173.96C123.75 171.827 123.417 170.227 122.75 169.16C122.11 168.067 121.083 167.52 119.67 167.52C118.63 167.52 117.803 167.733 117.19 168.16C116.577 168.587 116.123 169.24 115.83 170.12C115.563 170.973 115.417 172.053 115.39 173.36V174C115.39 175.413 115.523 176.613 115.79 177.6C116.057 178.56 116.51 179.293 117.15 179.8C117.79 180.307 118.657 180.56 119.75 180.56Z" fill="black"/>
<path d="M134.021 185V163.16H142.421L148.581 180.52H146.741L152.981 163.16H161.101V185H155.541V174.28C155.541 173.213 155.554 172.173 155.581 171.16C155.634 170.147 155.701 169.213 155.781 168.36H155.661L149.821 185H145.381L139.461 168.32H139.301C139.407 169.2 139.474 170.147 139.501 171.16C139.554 172.147 139.581 173.24 139.581 174.44V185H134.021Z" fill="black"/>
<path d="M171.817 185.4C170.457 185.4 169.271 185.12 168.257 184.56C167.271 184 166.497 183.227 165.937 182.24C165.377 181.227 165.097 180.04 165.097 178.68C165.097 176.36 165.897 174.613 167.497 173.44C169.124 172.267 171.551 171.627 174.777 171.52L178.417 171.4V170.52C178.417 169.347 178.097 168.507 177.457 168C176.844 167.467 175.857 167.2 174.497 167.2C173.591 167.2 172.617 167.32 171.577 167.56C170.564 167.8 169.404 168.173 168.097 168.68L166.377 164.52C167.737 163.907 169.137 163.467 170.577 163.2C172.044 162.907 173.551 162.76 175.097 162.76C178.111 162.76 180.404 163.387 181.977 164.64C183.551 165.893 184.337 167.827 184.337 170.44V185H180.177L179.017 182.04H178.857C178.244 182.813 177.604 183.453 176.937 183.96C176.297 184.467 175.564 184.827 174.737 185.04C173.937 185.28 172.964 185.4 171.817 185.4ZM174.097 181.04C175.351 181.04 176.377 180.667 177.177 179.92C178.004 179.147 178.417 178.067 178.417 176.68V174.88L176.257 174.96C174.337 175.04 173.004 175.373 172.257 175.96C171.511 176.547 171.137 177.32 171.137 178.28C171.137 179.187 171.417 179.88 171.977 180.36C172.564 180.813 173.271 181.04 174.097 181.04Z" fill="black"/>
<path d="M206.805 190.6V185H189.725V163.16H195.685V180.44H203.365V163.16H209.325V180.44H212.405V190.6H206.805Z" fill="black"/>
<path d="M215.214 185V163.16H221.014V171.8C221.014 172.52 220.988 173.347 220.934 174.28C220.881 175.213 220.814 176.08 220.734 176.88C220.681 177.68 220.614 178.253 220.534 178.6H220.654L228.974 163.16H235.774V185H229.974V176.28C229.974 175.427 230.001 174.573 230.054 173.72C230.108 172.84 230.161 172.04 230.214 171.32C230.294 170.6 230.361 170.04 230.414 169.64H230.254L222.014 185H215.214Z" fill="black"/>
<path d="M238.568 185L246.008 174.28L246.408 177C244.461 176.653 242.941 175.88 241.848 174.68C240.754 173.48 240.208 171.96 240.208 170.12C240.208 167.907 240.994 166.2 242.568 165C244.168 163.773 246.354 163.16 249.128 163.16H259.288V185H253.328L253.368 177.36H250.248L245.168 185H238.568ZM249.848 173.12H253.368V167.44H249.848C248.674 167.44 247.794 167.68 247.208 168.16C246.621 168.613 246.328 169.28 246.328 170.16C246.328 171.12 246.621 171.853 247.208 172.36C247.821 172.867 248.701 173.12 249.848 173.12Z" fill="black"/>
</svg>
