<svg width="698" height="51" viewBox="0 0 698 51" fill="none" xmlns="http://www.w3.org/2000/svg">
<path d="M26.7162 39L24.1162 30.5H11.1162L8.51621 39H0.366211L12.9662 3.15H22.2162L34.8662 39H26.7162ZM19.7162 15.85C19.5495 15.2833 19.3329 14.5667 19.0662 13.7C18.7995 12.8333 18.5329 11.95 18.2662 11.05C17.9995 10.15 17.7829 9.36667 17.6162 8.7C17.4495 9.36667 17.2162 10.2 16.9162 11.2C16.6495 12.1667 16.3829 13.1 16.1162 14C15.8829 14.8667 15.6995 15.4833 15.5662 15.85L13.0162 24.15H22.3162L19.7162 15.85ZM55.8377 39L46.4877 25.3L46.3877 24.9L55.9877 11.7H63.6877L53.4877 25.75L53.2377 23L64.4377 39H55.8377ZM37.8877 39V11.7H45.3377V39H37.8877ZM44.3377 27.95V22.25H49.6377V27.95H44.3377ZM72.5982 39V17.3H64.1982V11.7H88.4482V17.3H80.0482V39H72.5982ZM93.5424 51C92.709 51 91.959 50.9667 91.2924 50.9C90.6257 50.8333 90.0424 50.7333 89.5424 50.6V44.7C90.0424 44.7667 90.5257 44.8333 90.9924 44.9C91.4924 44.9667 92.0257 45 92.5924 45C93.6257 45 94.4924 44.85 95.1924 44.55C95.9257 44.2833 96.5424 43.8167 97.0424 43.15C97.5757 42.4833 98.0424 41.6 98.4424 40.5L100.192 35.6L100.092 41.95L88.0924 11.7H96.4424L101.492 27.05C101.659 27.55 101.792 28.05 101.892 28.55C102.026 29.05 102.126 29.5667 102.192 30.1C102.292 30.6333 102.359 31.2 102.392 31.8H102.542C102.642 30.9333 102.776 30.1167 102.942 29.35C103.109 28.55 103.309 27.7833 103.542 27.05L108.492 11.7H116.342L104.892 42.5C104.192 44.4333 103.309 46.0167 102.242 47.25C101.176 48.5167 99.9257 49.45 98.4924 50.05C97.0591 50.6833 95.409 51 93.5424 51ZM125.37 39.5C123.67 39.5 122.186 39.15 120.92 38.45C119.686 37.75 118.72 36.7833 118.02 35.55C117.32 34.2833 116.97 32.8 116.97 31.1C116.97 28.2 117.97 26.0167 119.97 24.55C122.003 23.0833 125.036 22.2833 129.07 22.15L133.62 22V20.9C133.62 19.4333 133.22 18.3833 132.42 17.75C131.653 17.0833 130.42 16.75 128.72 16.75C127.586 16.75 126.37 16.9 125.07 17.2C123.803 17.5 122.353 17.9667 120.72 18.6L118.57 13.4C120.27 12.6333 122.02 12.0833 123.82 11.75C125.653 11.3833 127.536 11.2 129.47 11.2C133.236 11.2 136.103 11.9833 138.07 13.55C140.036 15.1167 141.02 17.5333 141.02 20.8V39H135.82L134.37 35.3H134.17C133.403 36.2667 132.603 37.0667 131.77 37.7C130.97 38.3333 130.053 38.7833 129.02 39.05C128.02 39.35 126.803 39.5 125.37 39.5ZM128.22 34.05C129.786 34.05 131.07 33.5833 132.07 32.65C133.103 31.6833 133.62 30.3333 133.62 28.6V26.35L130.92 26.45C128.52 26.55 126.853 26.9667 125.92 27.7C124.986 28.4333 124.52 29.4 124.52 30.6C124.52 31.7333 124.87 32.6 125.57 33.2C126.303 33.7667 127.186 34.05 128.22 34.05ZM147.655 39.35C147.055 39.35 146.438 39.3 145.805 39.2C145.172 39.1333 144.572 39.0167 144.005 38.85V33C144.372 33.1 144.722 33.1833 145.055 33.25C145.388 33.2833 145.722 33.3 146.055 33.3C146.755 33.3 147.322 33.1667 147.755 32.9C148.222 32.6333 148.572 32.2 148.805 31.6C149.072 30.9667 149.255 30.1667 149.355 29.2C149.455 28.3 149.538 27.3 149.605 26.2C149.672 25.0667 149.738 23.8 149.805 22.4C149.905 21 149.988 19.4167 150.055 17.65C150.122 15.8833 150.205 13.9 150.305 11.7H171.155V39H163.705V17.4H156.755C156.688 18.7 156.622 19.9333 156.555 21.1C156.522 22.2333 156.472 23.3333 156.405 24.4C156.338 25.4667 156.255 26.5167 156.155 27.55C156.088 28.55 156.005 29.5667 155.905 30.6C155.605 33.7 154.788 35.9333 153.455 37.3C152.155 38.6667 150.222 39.35 147.655 39.35ZM178.151 39V11.7H185.601V20.45H189.301C193.501 20.45 196.618 21.2167 198.651 22.75C200.685 24.25 201.701 26.5167 201.701 29.55C201.701 32.6833 200.685 35.05 198.651 36.65C196.618 38.2167 193.568 39 189.501 39H178.151ZM185.601 33.4H188.951C190.718 33.4 192.018 33.1 192.851 32.5C193.718 31.8667 194.151 30.9333 194.151 29.7C194.151 28.5 193.718 27.6167 192.851 27.05C192.018 26.45 190.685 26.15 188.851 26.15H185.601V33.4ZM206.692 39V11.7H214.142V22.35H224.042V11.7H231.492V39H224.042V28.05H214.142V39H206.692ZM238.505 39V11.7H245.955V20.3H249.255C253.488 20.3 256.622 21.0833 258.655 22.65C260.722 24.1833 261.755 26.5 261.755 29.6C261.755 32.7 260.722 35.05 258.655 36.65C256.622 38.2167 253.538 39 249.405 39H238.505ZM245.955 33.4H249.205C250.938 33.4 252.205 33.0833 253.005 32.45C253.805 31.7833 254.205 30.8667 254.205 29.7C254.205 28.4333 253.788 27.4833 252.955 26.85C252.155 26.2167 250.872 25.9 249.105 25.9H245.955V33.4ZM265.755 39V11.7H273.205V39H265.755ZM292.431 39.5C289.697 39.5 287.264 39 285.131 38C283.031 36.9667 281.381 35.4167 280.181 33.35C278.981 31.2833 278.381 28.6833 278.381 25.55C278.381 22.35 278.914 19.7 279.981 17.6C281.081 15.4667 282.581 13.8667 284.481 12.8C286.414 11.7333 288.614 11.2 291.081 11.2C293.614 11.2 295.781 11.6833 297.581 12.65C299.414 13.6167 300.831 15.0167 301.831 16.85C302.831 18.6833 303.331 20.9333 303.331 23.6V27.4H285.881C285.981 29.4333 286.631 31.0333 287.831 32.2C289.031 33.3667 290.764 33.95 293.031 33.95C294.597 33.95 296.064 33.7833 297.431 33.45C298.797 33.0833 300.247 32.5333 301.781 31.8V37.55C300.447 38.2167 299.047 38.7 297.581 39C296.114 39.3333 294.397 39.5 292.431 39.5ZM286.031 22.25H296.331C296.331 21.1833 296.131 20.2333 295.731 19.4C295.364 18.5667 294.814 17.9 294.081 17.4C293.347 16.9 292.414 16.65 291.281 16.65C289.847 16.65 288.647 17.1167 287.681 18.05C286.747 18.95 286.197 20.35 286.031 22.25ZM319.343 39V11.7H326.793V22.35H336.693V11.7H344.143V39H336.693V28.05H326.793V39H319.343ZM357.555 39.5C355.855 39.5 354.372 39.15 353.105 38.45C351.872 37.75 350.905 36.7833 350.205 35.55C349.505 34.2833 349.155 32.8 349.155 31.1C349.155 28.2 350.155 26.0167 352.155 24.55C354.189 23.0833 357.222 22.2833 361.255 22.15L365.805 22V20.9C365.805 19.4333 365.405 18.3833 364.605 17.75C363.839 17.0833 362.605 16.75 360.905 16.75C359.772 16.75 358.555 16.9 357.255 17.2C355.989 17.5 354.539 17.9667 352.905 18.6L350.755 13.4C352.455 12.6333 354.205 12.0833 356.005 11.75C357.839 11.3833 359.722 11.2 361.655 11.2C365.422 11.2 368.289 11.9833 370.255 13.55C372.222 15.1167 373.205 17.5333 373.205 20.8V39H368.005L366.555 35.3H366.355C365.589 36.2667 364.789 37.0667 363.955 37.7C363.155 38.3333 362.239 38.7833 361.205 39.05C360.205 39.35 358.989 39.5 357.555 39.5ZM360.405 34.05C361.972 34.05 363.255 33.5833 364.255 32.65C365.289 31.6833 365.805 30.3333 365.805 28.6V26.35L363.105 26.45C360.705 26.55 359.039 26.9667 358.105 27.7C357.172 28.4333 356.705 29.4 356.705 30.6C356.705 31.7333 357.055 32.6 357.755 33.2C358.489 33.7667 359.372 34.05 360.405 34.05ZM397.304 39.5C395.771 39.5 394.288 39.35 392.854 39.05C391.454 38.75 390.171 38.3167 389.004 37.75V32C390.171 32.6 391.371 33.0667 392.604 33.4C393.871 33.7 395.121 33.85 396.354 33.85C398.921 33.85 400.804 33.1333 402.004 31.7C403.204 30.2333 403.788 27.9833 403.754 24.95C403.721 22.1167 403.154 20.05 402.054 18.75C400.954 17.4167 399.271 16.75 397.004 16.75C396.038 16.75 395.038 16.8833 394.004 17.15C392.971 17.3833 391.871 17.75 390.704 18.25L388.704 12.95C389.871 12.45 391.221 12.0333 392.754 11.7C394.288 11.3667 395.921 11.2 397.654 11.2C400.288 11.2 402.604 11.7167 404.604 12.75C406.638 13.7833 408.221 15.3333 409.354 17.4C410.521 19.4333 411.104 21.9833 411.104 25.05C411.104 29.6833 409.904 33.25 407.504 35.75C405.138 38.25 401.738 39.5 397.304 39.5ZM391.904 27.5V22.35H404.204V27.5H391.904ZM420.682 39V17.3H412.282V11.7H436.532V17.3H428.132V39H420.682ZM450.988 39.5C448.921 39.5 447.055 39.1833 445.388 38.55C443.755 37.8833 442.355 36.95 441.188 35.75C440.055 34.5167 439.188 33.0333 438.588 31.3C437.988 29.5333 437.688 27.5333 437.688 25.3C437.688 22.4 438.221 19.9 439.288 17.8C440.388 15.6667 441.938 14.0333 443.938 12.9C445.971 11.7667 448.371 11.2 451.138 11.2C453.905 11.2 456.271 11.7667 458.238 12.9C460.238 14.0333 461.771 15.65 462.838 17.75C463.905 19.85 464.438 22.3667 464.438 25.3C464.438 27.5 464.121 29.4833 463.488 31.25C462.888 33.0167 462.005 34.5167 460.838 35.75C459.671 36.95 458.255 37.8833 456.588 38.55C454.955 39.1833 453.088 39.5 450.988 39.5ZM451.088 33.8C453.088 33.8 454.538 33.1167 455.438 31.75C456.371 30.3833 456.838 28.2333 456.838 25.3C456.838 22.3667 456.371 20.2333 455.438 18.9C454.538 17.5667 453.071 16.9 451.038 16.9C449.038 16.9 447.571 17.5667 446.638 18.9C445.738 20.2333 445.288 22.3667 445.288 25.3C445.288 28.2333 445.755 30.3833 446.688 31.75C447.621 33.1167 449.088 33.8 451.088 33.8ZM469.593 39V11.7H476.843V22.5C476.843 23.4 476.809 24.4333 476.743 25.6C476.676 26.7667 476.593 27.85 476.493 28.85C476.426 29.85 476.343 30.5667 476.243 31H476.393L486.793 11.7H495.293V39H488.043V28.1C488.043 27.0333 488.076 25.9667 488.143 24.9C488.209 23.8 488.276 22.8 488.343 21.9C488.443 21 488.526 20.3 488.593 19.8H488.393L478.093 39H469.593ZM482.243 8.7C479.343 8.7 477.093 8.01667 475.493 6.65C473.893 5.28333 472.959 3.2 472.693 0.399999H479.243C479.376 1.76667 479.676 2.76667 480.143 3.4C480.643 4 481.393 4.3 482.393 4.3C483.359 4.3 484.093 3.98333 484.593 3.35C485.093 2.71666 485.409 1.73333 485.543 0.399999H492.093C491.826 3.13333 490.859 5.2 489.193 6.6C487.526 8 485.209 8.7 482.243 8.7ZM513.198 39V11.7H520.648V22.35H530.548V11.7H537.998V39H530.548V28.05H520.648V39H513.198ZM557.261 39.5C554.527 39.5 552.094 39 549.961 38C547.861 36.9667 546.211 35.4167 545.011 33.35C543.811 31.2833 543.211 28.6833 543.211 25.55C543.211 22.35 543.744 19.7 544.811 17.6C545.911 15.4667 547.411 13.8667 549.311 12.8C551.244 11.7333 553.444 11.2 555.911 11.2C558.444 11.2 560.611 11.6833 562.411 12.65C564.244 13.6167 565.661 15.0167 566.661 16.85C567.661 18.6833 568.161 20.9333 568.161 23.6V27.4H550.711C550.811 29.4333 551.461 31.0333 552.661 32.2C553.861 33.3667 555.594 33.95 557.861 33.95C559.427 33.95 560.894 33.7833 562.261 33.45C563.627 33.0833 565.077 32.5333 566.611 31.8V37.55C565.277 38.2167 563.877 38.7 562.411 39C560.944 39.3333 559.227 39.5 557.261 39.5ZM550.861 22.25H561.161C561.161 21.1833 560.961 20.2333 560.561 19.4C560.194 18.5667 559.644 17.9 558.911 17.4C558.177 16.9 557.244 16.65 556.111 16.65C554.677 16.65 553.477 17.1167 552.511 18.05C551.577 18.95 551.027 20.35 550.861 22.25ZM569.021 46V33.3H572.071C572.571 32.6667 573.004 31.9833 573.371 31.25C573.771 30.5167 574.087 29.6833 574.321 28.75C574.554 27.8167 574.721 26.7667 574.821 25.6C574.887 24.7 574.954 23.75 575.021 22.75C575.087 21.7167 575.137 20.6333 575.171 19.5C575.237 18.3667 575.304 17.15 575.371 15.85C575.437 14.55 575.487 13.1667 575.521 11.7H596.271V33.3H600.121V46H593.171V39H575.971V46H569.021ZM579.421 33.3H588.821V17.4H581.971C581.937 18.4667 581.887 19.5 581.821 20.5C581.787 21.4667 581.737 22.3667 581.671 23.2C581.637 24.0333 581.587 24.8 581.521 25.5C581.387 27.3333 581.137 28.8833 580.771 30.15C580.404 31.3833 579.954 32.4333 579.421 33.3ZM615.856 39.5C613.123 39.5 610.69 39 608.556 38C606.456 36.9667 604.806 35.4167 603.606 33.35C602.406 31.2833 601.806 28.6833 601.806 25.55C601.806 22.35 602.34 19.7 603.406 17.6C604.506 15.4667 606.006 13.8667 607.906 12.8C609.84 11.7333 612.04 11.2 614.506 11.2C617.04 11.2 619.206 11.6833 621.006 12.65C622.84 13.6167 624.256 15.0167 625.256 16.85C626.256 18.6833 626.756 20.9333 626.756 23.6V27.4H609.306C609.406 29.4333 610.056 31.0333 611.256 32.2C612.456 33.3667 614.19 33.95 616.456 33.95C618.023 33.95 619.49 33.7833 620.856 33.45C622.223 33.0833 623.673 32.5333 625.206 31.8V37.55C623.873 38.2167 622.473 38.7 621.006 39C619.54 39.3333 617.823 39.5 615.856 39.5ZM609.456 22.25H619.756C619.756 21.1833 619.556 20.2333 619.156 19.4C618.79 18.5667 618.24 17.9 617.506 17.4C616.773 16.9 615.84 16.65 614.706 16.65C613.273 16.65 612.073 17.1167 611.106 18.05C610.173 18.95 609.623 20.35 609.456 22.25ZM631.754 39.35C631.154 39.35 630.538 39.3 629.904 39.2C629.271 39.1333 628.671 39.0167 628.104 38.85V33C628.471 33.1 628.821 33.1833 629.154 33.25C629.488 33.2833 629.821 33.3 630.154 33.3C630.854 33.3 631.421 33.1667 631.854 32.9C632.321 32.6333 632.671 32.2 632.904 31.6C633.171 30.9667 633.354 30.1667 633.454 29.2C633.554 28.3 633.638 27.3 633.704 26.2C633.771 25.0667 633.838 23.8 633.904 22.4C634.004 21 634.088 19.4167 634.154 17.65C634.221 15.8833 634.304 13.9 634.404 11.7H655.254V39H647.804V17.4H640.854C640.788 18.7 640.721 19.9333 640.654 21.1C640.621 22.2333 640.571 23.3333 640.504 24.4C640.438 25.4667 640.354 26.5167 640.254 27.55C640.188 28.55 640.104 29.5667 640.004 30.6C639.704 33.7 638.888 35.9333 637.554 37.3C636.254 38.6667 634.321 39.35 631.754 39.35ZM674.501 39.5C671.768 39.5 669.334 39 667.201 38C665.101 36.9667 663.451 35.4167 662.251 33.35C661.051 31.2833 660.451 28.6833 660.451 25.55C660.451 22.35 660.984 19.7 662.051 17.6C663.151 15.4667 664.651 13.8667 666.551 12.8C668.484 11.7333 670.684 11.2 673.151 11.2C675.684 11.2 677.851 11.6833 679.651 12.65C681.484 13.6167 682.901 15.0167 683.901 16.85C684.901 18.6833 685.401 20.9333 685.401 23.6V27.4H667.951C668.051 29.4333 668.701 31.0333 669.901 32.2C671.101 33.3667 672.834 33.95 675.101 33.95C676.668 33.95 678.134 33.7833 679.501 33.45C680.868 33.0833 682.318 32.5333 683.851 31.8V37.55C682.518 38.2167 681.118 38.7 679.651 39C678.184 39.3333 676.468 39.5 674.501 39.5ZM668.101 22.25H678.401C678.401 21.1833 678.201 20.2333 677.801 19.4C677.434 18.5667 676.884 17.9 676.151 17.4C675.418 16.9 674.484 16.65 673.351 16.65C671.918 16.65 670.718 17.1167 669.751 18.05C668.818 18.95 668.268 20.35 668.101 22.25ZM693.049 39.35C691.782 39.35 690.732 38.9667 689.899 38.2C689.099 37.4 688.699 36.4167 688.699 35.25C688.699 34.0833 689.099 33.1167 689.899 32.35C690.732 31.55 691.782 31.15 693.049 31.15C694.282 31.15 695.299 31.55 696.099 32.35C696.899 33.1167 697.299 34.0833 697.299 35.25C697.299 36.4167 696.899 37.4 696.099 38.2C695.299 38.9667 694.282 39.35 693.049 39.35ZM693.049 18.65C691.782 18.65 690.732 18.2667 689.899 17.5C689.099 16.7 688.699 15.7167 688.699 14.55C688.699 13.3833 689.099 12.4167 689.899 11.65C690.732 10.85 691.782 10.45 693.049 10.45C694.282 10.45 695.299 10.85 696.099 11.65C696.899 12.4167 697.299 13.3833 697.299 14.55C697.299 15.7167 696.899 16.7 696.099 17.5C695.299 18.2667 694.282 18.65 693.049 18.65Z" fill="black"/>
</svg>
