<svg width="434" height="38" viewBox="0 0 434 38" fill="none" xmlns="http://www.w3.org/2000/svg">
<path d="M34 19.12C33.7333 21.5733 32.8667 23.7467 31.4 25.64C29.96 27.5067 28.0667 28.96 25.72 30C23.3733 31.04 20.6933 31.56 17.68 31.56C14.32 31.56 11.3733 30.9067 8.84 29.6C6.30667 28.2933 4.33333 26.48 2.92 24.16C1.50667 21.8133 0.8 19.0933 0.8 16C0.8 12.9067 1.50667 10.2 2.92 7.88C4.33333 5.53333 6.30667 3.70667 8.84 2.4C11.3733 1.09333 14.32 0.439998 17.68 0.439998C20.6933 0.439998 23.3733 0.959998 25.72 2C28.0667 3.04 29.96 4.49333 31.4 6.36C32.8667 8.22667 33.7333 10.4 34 12.88H28.68C28.3867 11.28 27.7467 9.90667 26.76 8.76C25.8 7.61333 24.5467 6.73333 23 6.12C21.4533 5.48 19.6667 5.16 17.64 5.16C15.2933 5.16 13.2533 5.6 11.52 6.48C9.81333 7.36 8.49333 8.61333 7.56 10.24C6.62667 11.8667 6.16 13.7867 6.16 16C6.16 18.2133 6.62667 20.1333 7.56 21.76C8.49333 23.3867 9.81333 24.64 11.52 25.52C13.2533 26.4 15.2933 26.84 17.64 26.84C19.6667 26.84 21.4533 26.5333 23 25.92C24.5467 25.3067 25.8 24.4267 26.76 23.28C27.7467 22.1067 28.3867 20.72 28.68 19.12H34ZM46.7103 31L47.8703 19.68L46.7103 8.36H63.1103C65.297 8.36 67.0036 8.86667 68.2303 9.88C69.4836 10.8933 70.1103 12.2933 70.1103 14.08C70.1103 15.7333 69.4836 17.0667 68.2303 18.08C67.0036 19.0667 65.2836 19.6533 63.0703 19.84L63.4703 18.88C66.0836 18.9333 68.0836 19.4667 69.4703 20.48C70.857 21.4933 71.5503 22.92 71.5503 24.76C71.5503 26.7067 70.8436 28.24 69.4303 29.36C68.0436 30.4533 66.1103 31 63.6303 31H46.7103ZM51.7503 29.72L49.7503 27.4H62.3103C63.7236 27.4 64.737 27.1333 65.3503 26.6C65.9903 26.04 66.3103 25.2667 66.3103 24.28C66.3103 23.4 65.9503 22.6667 65.2303 22.08C64.537 21.4933 63.3636 21.2 61.7103 21.2H50.8703V17.84H60.9503C62.3103 17.84 63.297 17.5733 63.9103 17.04C64.5503 16.48 64.8703 15.76 64.8703 14.88C64.8703 14.0267 64.5903 13.3333 64.0303 12.8C63.497 12.24 62.5903 11.96 61.3103 11.96H49.7903L51.7503 9.68L52.8703 19.68L51.7503 29.72ZM87.4659 31.56C84.7193 31.56 82.3059 31.0667 80.2259 30.08C78.1726 29.0667 76.5593 27.6667 75.3859 25.88C74.2393 24.0933 73.6659 22.0267 73.6659 19.68C73.6659 17.3067 74.2393 15.24 75.3859 13.48C76.5593 11.6933 78.1726 10.3067 80.2259 9.32C82.3059 8.30666 84.7193 7.8 87.4659 7.8C90.2126 7.8 92.6126 8.30666 94.6659 9.32C96.7459 10.3067 98.3593 11.6933 99.5059 13.48C100.679 15.24 101.266 17.3067 101.266 19.68C101.266 22.0267 100.679 24.0933 99.5059 25.88C98.3593 27.6667 96.7459 29.0667 94.6659 30.08C92.6126 31.0667 90.2126 31.56 87.4659 31.56ZM87.4659 27.48C89.2259 27.48 90.7326 27.16 91.9859 26.52C93.2659 25.88 94.2526 24.9867 94.9459 23.84C95.6393 22.6667 95.9859 21.28 95.9859 19.68C95.9859 18.08 95.6393 16.7067 94.9459 15.56C94.2526 14.3867 93.2659 13.48 91.9859 12.84C90.7326 12.2 89.2259 11.88 87.4659 11.88C85.7326 11.88 84.2259 12.2 82.9459 12.84C81.6659 13.48 80.6793 14.3867 79.9859 15.56C79.2926 16.7067 78.9459 18.08 78.9459 19.68C78.9459 21.28 79.2926 22.6667 79.9859 23.84C80.6793 24.9867 81.6659 25.88 82.9459 26.52C84.2259 27.16 85.7326 27.48 87.4659 27.48ZM115.253 31.56C112.853 31.56 110.746 31.24 108.933 30.6C107.146 29.96 105.733 29.04 104.693 27.84C103.679 26.64 103.119 25.2133 103.013 23.56H108.053C108.266 24.8667 108.986 25.8667 110.213 26.56C111.466 27.2267 113.146 27.56 115.253 27.56C117.279 27.56 118.866 27.2933 120.013 26.76C121.159 26.2 121.733 25.3467 121.733 24.2C121.733 23.2667 121.253 22.5733 120.293 22.12C119.359 21.6667 117.866 21.44 115.813 21.44H111.333V17.84H115.693C117.533 17.84 118.893 17.56 119.773 17C120.679 16.44 121.133 15.7467 121.133 14.92C121.133 13.9067 120.599 13.1333 119.533 12.6C118.466 12.0667 117.066 11.8 115.333 11.8C113.413 11.8 111.853 12.1067 110.653 12.72C109.453 13.3333 108.746 14.2533 108.533 15.48H103.493C103.626 14.04 104.173 12.7467 105.133 11.6C106.119 10.4267 107.493 9.50667 109.253 8.84C111.013 8.14667 113.106 7.8 115.533 7.8C117.746 7.8 119.666 8.08 121.293 8.64C122.919 9.2 124.173 9.97333 125.053 10.96C125.959 11.92 126.413 13.0267 126.413 14.28C126.413 15.2933 126.093 16.2267 125.453 17.08C124.839 17.9333 123.866 18.6133 122.533 19.12C121.226 19.6267 119.533 19.88 117.453 19.88V19.2C120.493 19.0933 122.853 19.5067 124.533 20.44C126.213 21.3467 127.053 22.7067 127.053 24.52C127.053 25.88 126.586 27.0933 125.653 28.16C124.746 29.2267 123.413 30.0667 121.653 30.68C119.893 31.2667 117.759 31.56 115.253 31.56ZM130.053 31L131.213 19.68L130.053 8.36H146.453C148.639 8.36 150.346 8.86667 151.573 9.88C152.826 10.8933 153.453 12.2933 153.453 14.08C153.453 15.7333 152.826 17.0667 151.573 18.08C150.346 19.0667 148.626 19.6533 146.413 19.84L146.813 18.88C149.426 18.9333 151.426 19.4667 152.812 20.48C154.199 21.4933 154.893 22.92 154.893 24.76C154.893 26.7067 154.186 28.24 152.773 29.36C151.386 30.4533 149.453 31 146.973 31H130.053ZM135.093 29.72L133.092 27.4H145.653C147.066 27.4 148.079 27.1333 148.693 26.6C149.333 26.04 149.653 25.2667 149.653 24.28C149.653 23.4 149.293 22.6667 148.573 22.08C147.879 21.4933 146.706 21.2 145.053 21.2H134.213V17.84H144.293C145.653 17.84 146.639 17.5733 147.253 17.04C147.893 16.48 148.213 15.76 148.213 14.88C148.213 14.0267 147.933 13.3333 147.373 12.8C146.839 12.24 145.933 11.96 144.653 11.96H133.133L135.093 9.68L136.213 19.68L135.093 29.72ZM158.288 8.36H163.488V16.24L163.248 17.04V21.6L163.488 23V37.6H158.288V8.36ZM161.488 19.68C161.995 17.28 162.835 15.2 164.008 13.44C165.181 11.6533 166.621 10.2667 168.328 9.28C170.061 8.29333 171.981 7.8 174.088 7.8C176.301 7.8 178.261 8.30666 179.968 9.32C181.675 10.3067 183.008 11.6933 183.968 13.48C184.928 15.24 185.408 17.3067 185.408 19.68C185.408 22.0267 184.928 24.0933 183.968 25.88C183.008 27.6667 181.675 29.0667 179.968 30.08C178.261 31.0667 176.301 31.56 174.088 31.56C171.981 31.56 170.075 31.0667 168.368 30.08C166.661 29.0933 165.208 27.7067 164.008 25.92C162.835 24.1333 161.995 22.0533 161.488 19.68ZM180.128 19.68C180.128 18.16 179.808 16.8267 179.168 15.68C178.555 14.5067 177.701 13.6 176.608 12.96C175.515 12.2933 174.261 11.96 172.848 11.96C171.435 11.96 170.101 12.2933 168.848 12.96C167.621 13.6 166.541 14.5067 165.608 15.68C164.675 16.8267 163.915 18.16 163.328 19.68C163.915 21.2 164.675 22.5467 165.608 23.72C166.541 24.8667 167.621 25.7733 168.848 26.44C170.101 27.08 171.435 27.4 172.848 27.4C174.261 27.4 175.515 27.08 176.608 26.44C177.701 25.7733 178.555 24.8667 179.168 23.72C179.808 22.5467 180.128 21.2 180.128 19.68ZM210.053 31L209.173 22.6L210.213 19.68L209.173 16.8L210.053 8.36H215.413L214.213 19.68L215.413 31H210.053ZM211.653 19.68C211.147 22.0533 210.307 24.1333 209.133 25.92C207.96 27.7067 206.507 29.0933 204.773 30.08C203.067 31.0667 201.16 31.56 199.053 31.56C196.84 31.56 194.88 31.0667 193.173 30.08C191.467 29.0667 190.133 27.6667 189.173 25.88C188.213 24.0933 187.733 22.0267 187.733 19.68C187.733 17.3067 188.213 15.24 189.173 13.48C190.133 11.6933 191.467 10.3067 193.173 9.32C194.88 8.30666 196.84 7.8 199.053 7.8C201.16 7.8 203.067 8.29333 204.773 9.28C206.507 10.2667 207.96 11.6533 209.133 13.44C210.333 15.2 211.173 17.28 211.653 19.68ZM193.013 19.68C193.013 21.2 193.32 22.5467 193.933 23.72C194.573 24.8667 195.44 25.7733 196.533 26.44C197.627 27.08 198.88 27.4 200.293 27.4C201.733 27.4 203.067 27.08 204.293 26.44C205.52 25.7733 206.6 24.8667 207.533 23.72C208.493 22.5467 209.253 21.2 209.813 19.68C209.253 18.16 208.493 16.8267 207.533 15.68C206.6 14.5067 205.52 13.6 204.293 12.96C203.067 12.2933 201.733 11.96 200.293 11.96C198.88 11.96 197.627 12.2933 196.533 12.96C195.44 13.6 194.573 14.5067 193.933 15.68C193.32 16.8267 193.013 18.16 193.013 19.68ZM259.058 8.36V28.6L257.458 27H263.058V36.72H258.538V29.72L259.418 31H219.618V8.36H224.818V28.6L223.218 27H238.338L236.738 28.6V8.36H241.938V28.6L240.338 27H255.458L253.858 28.6V8.36H259.058ZM277.857 31.56C275.217 31.56 272.871 31.0667 270.817 30.08C268.764 29.0667 267.151 27.6667 265.977 25.88C264.804 24.0933 264.217 22.0133 264.217 19.64C264.217 17.2933 264.764 15.24 265.857 13.48C266.977 11.6933 268.511 10.3067 270.457 9.32C272.431 8.30666 274.684 7.8 277.217 7.8C279.751 7.8 281.937 8.37333 283.777 9.52C285.644 10.64 287.084 12.2267 288.097 14.28C289.111 16.3333 289.617 18.7467 289.617 21.52H268.297V17.56H287.017L284.417 19.04C284.337 17.5467 283.977 16.2667 283.337 15.2C282.724 14.1333 281.884 13.32 280.817 12.76C279.777 12.1733 278.537 11.88 277.097 11.88C275.577 11.88 274.244 12.1867 273.097 12.8C271.977 13.4133 271.097 14.28 270.457 15.4C269.817 16.4933 269.497 17.8 269.497 19.32C269.497 21 269.871 22.4533 270.617 23.68C271.391 24.9067 272.471 25.8533 273.857 26.52C275.271 27.16 276.937 27.48 278.857 27.48C280.591 27.48 282.364 27.2133 284.177 26.68C285.991 26.12 287.591 25.3467 288.977 24.36V28.12C287.591 29.1867 285.897 30.0267 283.897 30.64C281.924 31.2533 279.911 31.56 277.857 31.56ZM293.096 8.36H298.256V31H293.096V8.36ZM312.336 8.36H317.496V31H312.336V8.36ZM296.016 17.52H314.496V21.52H296.016V17.52ZM322.218 31V8.36H327.338V28.4L325.778 28.04L341.258 8.36H347.978V31H342.858V10.68L344.458 11.08L328.778 31H322.218ZM365.067 31.56C362.427 31.56 360.08 31.0667 358.027 30.08C355.974 29.0667 354.36 27.6667 353.187 25.88C352.014 24.0933 351.427 22.0133 351.427 19.64C351.427 17.2933 351.974 15.24 353.067 13.48C354.187 11.6933 355.72 10.3067 357.667 9.32C359.64 8.30666 361.894 7.8 364.427 7.8C366.96 7.8 369.147 8.37333 370.987 9.52C372.854 10.64 374.294 12.2267 375.307 14.28C376.32 16.3333 376.827 18.7467 376.827 21.52H355.507V17.56H374.227L371.627 19.04C371.547 17.5467 371.187 16.2667 370.547 15.2C369.934 14.1333 369.094 13.32 368.027 12.76C366.987 12.1733 365.747 11.88 364.307 11.88C362.787 11.88 361.454 12.1867 360.307 12.8C359.187 13.4133 358.307 14.28 357.667 15.4C357.027 16.4933 356.707 17.8 356.707 19.32C356.707 21 357.08 22.4533 357.827 23.68C358.6 24.9067 359.68 25.8533 361.067 26.52C362.48 27.16 364.147 27.48 366.067 27.48C367.8 27.48 369.574 27.2133 371.387 26.68C373.2 26.12 374.8 25.3467 376.187 24.36V28.12C374.8 29.1867 373.107 30.0267 371.107 30.64C369.134 31.2533 367.12 31.56 365.067 31.56ZM380.305 31V8.36H388.025L397.545 28.52H395.505L404.945 8.36H412.665V31H407.785V10.08H409.145L399.025 31H393.945L383.825 10.16L385.185 10.12V31H380.305ZM427.342 0.999998H432.702L431.862 21.88H428.182L427.342 0.999998ZM430.022 31.32C429.089 31.32 428.315 31.04 427.702 30.48C427.089 29.8933 426.782 29.1467 426.782 28.24C426.782 27.3333 427.089 26.6 427.702 26.04C428.315 25.4533 429.089 25.16 430.022 25.16C430.982 25.16 431.755 25.4533 432.342 26.04C432.955 26.6 433.262 27.3333 433.262 28.24C433.262 29.1467 432.955 29.8933 432.342 30.48C431.755 31.04 430.982 31.32 430.022 31.32Z" fill="black"/>
</svg>
