<svg width="266" height="22" viewBox="0 0 266 22" fill="none" xmlns="http://www.w3.org/2000/svg">
<path d="M4.975 2.25H23V21H18.275V4.3L20.4 6.425H7.6L9.6 4.85C9.71667 6.01667 9.8 7.13333 9.85 8.2C9.91667 9.25 9.95 10.25 9.95 11.2C9.95 13.5833 9.73333 15.525 9.3 17.025C8.88333 18.5083 8.21667 19.6083 7.3 20.325C6.4 21.025 5.225 21.375 3.775 21.375C3.15833 21.375 2.55 21.3083 1.95 21.175C1.35 21.0417 0.808333 20.85 0.325 20.6V16.675C1.05833 16.9583 1.73333 17.1 2.35 17.1C3.46667 17.1 4.26667 16.5833 4.75 15.55C5.25 14.5167 5.5 12.8417 5.5 10.525C5.5 9.425 5.45833 8.19167 5.375 6.825C5.29167 5.44167 5.15833 3.91667 4.975 2.25ZM26.1826 21V6.75H30.7326V18.5L29.6826 18.2L37.7076 6.75H43.6826V21H39.1076V8.975L40.1826 9.3L31.9826 21H26.1826ZM52.166 17C50.166 17 48.641 16.45 47.591 15.35C46.541 14.2333 46.016 12.6333 46.016 10.55V6.75H50.641V10.35C50.641 12.4 51.5993 13.425 53.516 13.425C54.366 13.425 55.166 13.2083 55.916 12.775C56.6827 12.325 57.341 11.6667 57.891 10.8L58.141 13.825C57.6743 14.825 56.9077 15.6083 55.841 16.175C54.791 16.725 53.566 17 52.166 17ZM57.391 21V6.75H62.041V21H57.391ZM65.0254 6.75H69.6504V21H65.0254V6.75ZM76.9004 6.75H81.5254V21H76.9004V6.75ZM67.6754 12H78.6754V15.475H67.6754V12ZM101.207 6.75H105.857V21H101.207V6.75ZM84.5322 21V6.75H89.1322V19.825L87.6822 17.7H92.9822C93.6822 17.7 94.2239 17.5333 94.6072 17.2C94.9906 16.8667 95.1822 16.3917 95.1822 15.775C95.1822 15.1583 94.9906 14.6833 94.6072 14.35C94.2239 14 93.6822 13.825 92.9822 13.825H87.6822V10.675H93.7322C94.9656 10.675 96.0406 10.8917 96.9572 11.325C97.8739 11.7417 98.5822 12.3417 99.0822 13.125C99.5989 13.8917 99.8572 14.7917 99.8572 15.825C99.8572 16.8583 99.5989 17.7667 99.0822 18.55C98.5822 19.3333 97.8739 19.9417 96.9572 20.375C96.0572 20.7917 94.9989 21 93.7822 21H84.5322ZM108.824 21V6.75H113.374V18.5L112.324 18.2L120.349 6.75H126.324V21H121.749V8.975L122.824 9.3L114.624 21H108.824ZM117.424 5.5C115.758 5.5 114.408 5.09167 113.374 4.275C112.358 3.45833 111.733 2.275 111.499 0.724999H115.074C115.208 1.40833 115.474 1.93333 115.874 2.3C116.291 2.66667 116.808 2.85 117.424 2.85C118.058 2.85 118.574 2.66667 118.974 2.3C119.391 1.93333 119.658 1.40833 119.774 0.724999H123.349C123.116 2.275 122.491 3.45833 121.474 4.275C120.458 5.09167 119.108 5.5 117.424 5.5ZM135.606 21V6.75H140.231V17.325L138.881 16.85L147.106 6.75H152.081L139.731 21H135.606ZM147.206 21L143.056 14.025L146.506 11.5L152.481 21H147.206ZM166.013 21L165.388 15.825L166.063 13.875L165.388 11.95L166.013 6.75H170.838L169.963 13.875L170.838 21H166.013ZM167.163 13.875C166.913 15.3917 166.438 16.7167 165.738 17.85C165.038 18.9667 164.154 19.8417 163.088 20.475C162.021 21.0917 160.821 21.4 159.488 21.4C158.088 21.4 156.854 21.0833 155.788 20.45C154.738 19.8167 153.913 18.9417 153.313 17.825C152.713 16.6917 152.413 15.375 152.413 13.875C152.413 12.375 152.713 11.0667 153.313 9.95C153.913 8.81667 154.738 7.93333 155.788 7.3C156.854 6.66667 158.088 6.35 159.488 6.35C160.821 6.35 162.021 6.66667 163.088 7.3C164.154 7.91667 165.038 8.78333 165.738 9.9C166.454 11.0167 166.929 12.3417 167.163 13.875ZM157.113 13.875C157.113 14.6417 157.271 15.325 157.588 15.925C157.904 16.5083 158.338 16.975 158.888 17.325C159.454 17.6583 160.104 17.825 160.838 17.825C161.571 17.825 162.263 17.6583 162.913 17.325C163.579 16.975 164.163 16.5083 164.663 15.925C165.163 15.325 165.538 14.6417 165.788 13.875C165.538 13.1083 165.163 12.4333 164.663 11.85C164.163 11.25 163.579 10.7833 162.913 10.45C162.263 10.1 161.571 9.925 160.838 9.925C160.104 9.925 159.454 10.1 158.888 10.45C158.338 10.7833 157.904 11.25 157.588 11.85C157.271 12.4333 157.113 13.1083 157.113 13.875ZM182.299 21.4C180.332 21.4 178.64 21.025 177.224 20.275C175.824 19.525 174.749 18.45 173.999 17.05C173.265 15.65 172.899 13.9583 172.899 11.975C172.899 9.025 173.699 6.7 175.299 5C176.899 3.28333 179.199 2.3 182.199 2.05C183.415 1.95 184.424 1.86667 185.224 1.8C186.04 1.71667 186.699 1.64167 187.199 1.575C187.715 1.49167 188.157 1.40833 188.524 1.325C188.89 1.24167 189.24 1.14167 189.574 1.025V4.85C189.207 4.98333 188.749 5.10833 188.199 5.225C187.665 5.325 186.982 5.40833 186.149 5.475C185.332 5.525 184.315 5.58333 183.099 5.65C180.932 5.75 179.332 6.325 178.299 7.375C177.265 8.40833 176.749 9.91667 176.749 11.9V12.5L176.599 12.15C176.915 11.2833 177.407 10.5417 178.074 9.925C178.757 9.29167 179.574 8.80833 180.524 8.475C181.49 8.14167 182.532 7.975 183.649 7.975C185.099 7.975 186.365 8.25 187.449 8.8C188.532 9.33333 189.374 10.0917 189.974 11.075C190.59 12.0417 190.899 13.1833 190.899 14.5C190.899 15.8833 190.54 17.0917 189.824 18.125C189.107 19.1583 188.107 19.9667 186.824 20.55C185.54 21.1167 184.032 21.4 182.299 21.4ZM182.424 17.9C183.19 17.9 183.857 17.7667 184.424 17.5C184.99 17.2167 185.424 16.825 185.724 16.325C186.04 15.825 186.199 15.2333 186.199 14.55C186.199 13.8833 186.04 13.3 185.724 12.8C185.424 12.3 184.99 11.9167 184.424 11.65C183.857 11.3667 183.19 11.225 182.424 11.225C181.357 11.225 180.407 11.5083 179.574 12.075C178.74 12.625 178.115 13.3917 177.699 14.375C177.932 15.4417 178.474 16.3 179.324 16.95C180.19 17.5833 181.224 17.9 182.424 17.9ZM193.224 21V6.75H197.774V18.5L196.724 18.2L204.749 6.75H210.724V21H206.149V8.975L207.224 9.3L199.024 21H193.224ZM213.707 6.75H218.332V21H213.707V6.75ZM225.582 6.75H230.207V21H225.582V6.75ZM216.357 12H227.357V15.475H216.357V12ZM241.389 21.4C239.689 21.4 238.164 21.0833 236.814 20.45C235.481 19.8167 234.431 18.9333 233.664 17.8C232.897 16.6667 232.514 15.3417 232.514 13.825C232.514 12.3417 232.881 11.0417 233.614 9.925C234.347 8.80833 235.356 7.93333 236.639 7.3C237.939 6.66667 239.406 6.35 241.039 6.35C242.706 6.35 244.139 6.71667 245.339 7.45C246.539 8.18333 247.464 9.21667 248.114 10.55C248.764 11.8833 249.089 13.45 249.089 15.25H236.239V12.325H246.539L244.864 13.375C244.814 12.5917 244.622 11.9333 244.289 11.4C243.972 10.85 243.547 10.4333 243.014 10.15C242.481 9.85 241.847 9.7 241.114 9.7C240.314 9.7 239.622 9.85833 239.039 10.175C238.456 10.4917 237.997 10.9333 237.664 11.5C237.347 12.0667 237.189 12.725 237.189 13.475C237.189 14.425 237.397 15.2333 237.814 15.9C238.247 16.5667 238.864 17.075 239.664 17.425C240.481 17.775 241.472 17.95 242.639 17.95C243.706 17.95 244.772 17.8083 245.839 17.525C246.906 17.225 247.864 16.8083 248.714 16.275V19.3C247.747 19.9667 246.639 20.4833 245.389 20.85C244.156 21.2167 242.822 21.4 241.389 21.4ZM255.216 8.35H259.866V21H255.216V8.35ZM249.691 6.75H265.416V10.275H249.691V6.75Z" fill="black"/>
</svg>
