<svg width="305" height="37" viewBox="0 0 305 37" fill="none" xmlns="http://www.w3.org/2000/svg">
<path d="M16.24 -2.38419e-06C18.48 -2.38419e-06 20.4133 0.399998 22.04 1.2C23.6933 2 24.96 3.12 25.84 4.56C26.7467 5.97333 27.2 7.61333 27.2 9.48C27.2 11.3467 26.7467 13 25.84 14.44C24.96 15.8533 23.6933 16.96 22.04 17.76C20.4133 18.56 18.48 18.96 16.24 18.96H2.76V14.4H16.04C17.8533 14.4 19.2667 13.96 20.28 13.08C21.32 12.2 21.84 11 21.84 9.48C21.84 7.96 21.32 6.76 20.28 5.88C19.2667 5 17.8533 4.56 16.04 4.56H3.28L5.64 1.92V30H0.36V-2.38419e-06H16.24ZM41.9059 30.56C39.2659 30.56 36.9193 30.0667 34.8659 29.08C32.8126 28.0667 31.1993 26.6667 30.0259 24.88C28.8526 23.0933 28.2659 21.0133 28.2659 18.64C28.2659 16.2933 28.8126 14.24 29.9059 12.48C31.0259 10.6933 32.5593 9.30667 34.5059 8.32C36.4793 7.30666 38.7326 6.8 41.2659 6.8C43.7993 6.8 45.9859 7.37333 47.8259 8.52C49.6926 9.64 51.1326 11.2267 52.1459 13.28C53.1593 15.3333 53.6659 17.7467 53.6659 20.52H32.3459V16.56H51.0659L48.4659 18.04C48.3859 16.5467 48.0259 15.2667 47.3859 14.2C46.7726 13.1333 45.9326 12.32 44.8659 11.76C43.8259 11.1733 42.5859 10.88 41.1459 10.88C39.6259 10.88 38.2926 11.1867 37.1459 11.8C36.0259 12.4133 35.1459 13.28 34.5059 14.4C33.8659 15.4933 33.5459 16.8 33.5459 18.32C33.5459 20 33.9193 21.4533 34.6659 22.68C35.4393 23.9067 36.5193 24.8533 37.9059 25.52C39.3193 26.16 40.9859 26.48 42.9059 26.48C44.6393 26.48 46.4126 26.2133 48.2259 25.68C50.0393 25.12 51.6393 24.3467 53.0259 23.36V27.12C51.6393 28.1867 49.9459 29.0267 47.9459 29.64C45.9726 30.2533 43.9593 30.56 41.9059 30.56ZM75.0244 7.36V11.44H59.9444L62.3444 9.04V30H57.1444V7.36H75.0244ZM77.5162 30V7.36H82.6362V27.4L81.0762 27.04L96.5562 7.36H103.276V30H98.1562V9.68L99.7562 10.08L84.0762 30H77.5162ZM133.005 21.08C132.739 22.9467 132.005 24.6 130.805 26.04C129.605 27.4533 128.072 28.56 126.205 29.36C124.339 30.16 122.259 30.56 119.965 30.56C117.352 30.56 115.045 30.0667 113.045 29.08C111.072 28.0667 109.525 26.6667 108.405 24.88C107.285 23.0933 106.725 21.0267 106.725 18.68C106.725 16.3333 107.285 14.2667 108.405 12.48C109.525 10.6933 111.072 9.30667 113.045 8.32C115.045 7.30666 117.352 6.8 119.965 6.8C122.259 6.8 124.339 7.2 126.205 8C128.072 8.8 129.605 9.92 130.805 11.36C132.005 12.7733 132.739 14.4267 133.005 16.32H127.765C127.392 14.6133 126.499 13.28 125.085 12.32C123.672 11.36 121.965 10.88 119.965 10.88C118.365 10.88 116.965 11.2 115.765 11.84C114.565 12.4533 113.632 13.3467 112.965 14.52C112.325 15.6667 112.005 17.0533 112.005 18.68C112.005 20.28 112.325 21.6667 112.965 22.84C113.632 24.0133 114.565 24.92 115.765 25.56C116.965 26.1733 118.365 26.48 119.965 26.48C121.992 26.48 123.712 25.9867 125.125 25C126.539 24.0133 127.419 22.7067 127.765 21.08H133.005ZM142.334 9.16H147.534V30H142.334V9.16ZM132.934 7.36H156.934V11.44H132.934V7.36ZM159.413 7.36H164.613V15.24L164.373 16.04V20.6L164.613 22V36.6H159.413V7.36ZM162.613 18.68C163.12 16.28 163.96 14.2 165.133 12.44C166.306 10.6533 167.746 9.26666 169.453 8.28C171.186 7.29333 173.106 6.8 175.213 6.8C177.426 6.8 179.386 7.30666 181.093 8.32C182.8 9.30667 184.133 10.6933 185.093 12.48C186.053 14.24 186.533 16.3067 186.533 18.68C186.533 21.0267 186.053 23.0933 185.093 24.88C184.133 26.6667 182.8 28.0667 181.093 29.08C179.386 30.0667 177.426 30.56 175.213 30.56C173.106 30.56 171.2 30.0667 169.493 29.08C167.786 28.0933 166.333 26.7067 165.133 24.92C163.96 23.1333 163.12 21.0533 162.613 18.68ZM181.253 18.68C181.253 17.16 180.933 15.8267 180.293 14.68C179.68 13.5067 178.826 12.6 177.733 11.96C176.64 11.2933 175.386 10.96 173.973 10.96C172.56 10.96 171.226 11.2933 169.973 11.96C168.746 12.6 167.666 13.5067 166.733 14.68C165.8 15.8267 165.04 17.16 164.453 18.68C165.04 20.2 165.8 21.5467 166.733 22.72C167.666 23.8667 168.746 24.7733 169.973 25.44C171.226 26.08 172.56 26.4 173.973 26.4C175.386 26.4 176.64 26.08 177.733 25.44C178.826 24.7733 179.68 23.8667 180.293 22.72C180.933 21.5467 181.253 20.2 181.253 18.68ZM211.178 30L210.298 21.6L211.338 18.68L210.298 15.8L211.178 7.36H216.538L215.338 18.68L216.538 30H211.178ZM212.778 18.68C212.272 21.0533 211.432 23.1333 210.258 24.92C209.085 26.7067 207.632 28.0933 205.898 29.08C204.192 30.0667 202.285 30.56 200.178 30.56C197.965 30.56 196.005 30.0667 194.298 29.08C192.592 28.0667 191.258 26.6667 190.298 24.88C189.338 23.0933 188.858 21.0267 188.858 18.68C188.858 16.3067 189.338 14.24 190.298 12.48C191.258 10.6933 192.592 9.30667 194.298 8.32C196.005 7.30666 197.965 6.8 200.178 6.8C202.285 6.8 204.192 7.29333 205.898 8.28C207.632 9.26666 209.085 10.6533 210.258 12.44C211.458 14.2 212.298 16.28 212.778 18.68ZM194.138 18.68C194.138 20.2 194.445 21.5467 195.058 22.72C195.698 23.8667 196.565 24.7733 197.658 25.44C198.752 26.08 200.005 26.4 201.418 26.4C202.858 26.4 204.192 26.08 205.418 25.44C206.645 24.7733 207.725 23.8667 208.658 22.72C209.618 21.5467 210.378 20.2 210.938 18.68C210.378 17.16 209.618 15.8267 208.658 14.68C207.725 13.5067 206.645 12.6 205.418 11.96C204.192 11.2933 202.858 10.96 201.418 10.96C200.005 10.96 198.752 11.2933 197.658 11.96C196.565 12.6 195.698 13.5067 195.058 14.68C194.445 15.8267 194.138 17.16 194.138 18.68ZM244.663 7.36V27.12L243.783 26H248.863V35.72H244.343V29.08L245.223 30H220.743V7.36H225.943V27.12L225.103 26H240.223L239.463 27.12V7.36H244.663ZM251.818 30V7.36H256.938V27.4L255.378 27.04L270.858 7.36H277.578V30H272.458V9.68L274.058 10.08L258.378 30H251.818ZM301.147 18.04V21.68H289.707L289.627 21.56C287.974 21.56 286.52 21.2667 285.267 20.68C284.014 20.0933 283.04 19.2667 282.347 18.2C281.654 17.1333 281.307 15.8933 281.307 14.48C281.307 13.0667 281.654 11.8267 282.347 10.76C283.04 9.69333 284.014 8.86667 285.267 8.28C286.52 7.66666 287.974 7.36 289.627 7.36H304.827V30H299.627V8.84L301.347 11.08H290.747C289.44 11.08 288.414 11.3867 287.667 12C286.947 12.6133 286.587 13.4533 286.587 14.52C286.587 15.5867 286.947 16.44 287.667 17.08C288.414 17.72 289.44 18.04 290.747 18.04H301.147ZM295.267 19.4L286.867 30H280.827L289.467 19.4H295.267Z" fill="black"/>
</svg>
